<svg width="100%" height="100%" viewBox="0 0 52 26" version="1.1" xmlns="http://www.w3.org/2000/svg" xmlns:xlink="http://www.w3.org/1999/xlink" xml:space="preserve" xmlns:serif="http://www.serif.com/" style="fill-rule:evenodd;clip-rule:evenodd;stroke-linecap:round;stroke-linejoin:round;stroke-miterlimit:1.5;">
  <g transform="matrix(0.0916031,0,0,0.0985175,-28.229,-106.384)">
    <rect x="330" y="1090" width="524" height="246" style="fill:rgb(182,140,98);"/>
    <clipPath id="_clip1">
      <rect x="330" y="1090" width="524" height="246"/>
    </clipPath>
    <g clip-path="url(#_clip1)">
      <g transform="matrix(0.675245,0,0,1,107.169,-4.54747e-13)">
        <rect x="330" y="1090" width="524" height="246" style="fill:rgb(174,128,81);stroke:rgb(33,35,46);stroke-width:13.51px;"/>
      </g>
      <g transform="matrix(0.381776,0,0,0.597087,517.652,325.131)">
        <path d="M435.271,1281L435.271,1693" style="fill:none;stroke:rgb(33,35,46);stroke-width:24.44px;"/>
      </g>
      <g transform="matrix(0.115196,0,0,0.466019,701.681,582.039)">
        <rect x="330" y="1090" width="524" height="246" style="fill:rgb(221,200,181);stroke:rgb(33,35,46);stroke-width:35.51px;"/>
      </g>
      <g transform="matrix(0.642157,0,0,0.597087,231.75,517.99)">
        <g transform="matrix(2.14706,0,0,-0.847222,-316.147,2345.94)">
          <path d="M300.945,1210.95L245.055,1210.95L273,1222.75L300.945,1210.95Z" style="fill:none;stroke:rgb(33,35,46);stroke-width:11.57px;"/>
        </g>
        <g transform="matrix(0.594522,0,0,0.145631,11.2218,1061.45)">
          <path d="M435.271,1281L435.271,1693" style="fill:none;stroke:rgb(33,35,46);stroke-width:43.64px;"/>
        </g>
        <g transform="matrix(2.14706,0,0,0.847222,-317.147,158.556)">
          <path d="M307,1208L239,1208L273.194,1284.72L307,1208Z" style="fill:none;stroke:rgb(33,35,46);stroke-width:11.57px;"/>
        </g>
      </g>
    </g>
    <rect x="330" y="1090" width="524" height="246" style="fill:none;stroke:rgb(33,35,46);stroke-width:11.68px;"/>
  </g>
</svg>
