<?xml version="1.0" encoding="UTF-8" standalone="no"?>
<!DOCTYPE svg PUBLIC "-//W3C//DTD SVG 1.1//EN" "http://www.w3.org/Graphics/SVG/1.1/DTD/svg11.dtd">
<svg width="100%" height="100%" viewBox="0 0 68 46" version="1.1" xmlns="http://www.w3.org/2000/svg" xmlns:xlink="http://www.w3.org/1999/xlink" xml:space="preserve" xmlns:serif="http://www.serif.com/" style="fill-rule:evenodd;clip-rule:evenodd;stroke-linecap:round;stroke-linejoin:round;stroke-miterlimit:1.5;">
    <g id="me" transform="matrix(0.0423756,0,0,0.0423522,15.5278,6.3998)">
        <g id="head" transform="matrix(5.5,0,0,1,-5862,-541)">
            <path d="M1138.93,525.912C1150.61,525.912 1163.66,546.057 1170.97,608.292C1177.49,663.735 1180.07,740.019 1180.07,819.328C1180.07,930.031 1176.8,1004.05 1169.35,1060C1165.36,1089.9 1159.84,1110 1152.28,1110C1141.66,1110 1127.44,1092.05 1118.18,1040C1114.55,1019.55 1113.75,981.806 1110.91,950C1105.89,893.721 1102.33,835.291 1100.73,780C1099.11,724.298 1100.4,695.346 1103.64,650C1110.06,560.026 1124.26,525.912 1138.93,525.912Z" style="fill:rgb(193,143,120);stroke:black;stroke-width:1.69px;"/>
        </g>
        <g id="face" transform="matrix(1.24987,-0.0650498,0.0650498,1.24987,-1752.76,-595.296)">
            <g id="nose" transform="matrix(1,0,0,1,-13.6475,-15.0852)">
                <path d="M1733.71,766.949C1742.73,801.844 1752.27,804.946 1758.25,818.709C1765.52,835.411 1766.38,835.364 1766.94,851.103C1767.18,857.73 1748.34,860.517 1740,860" style="fill:none;stroke:black;stroke-width:5.33px;"/>
            </g>
            <g id="eyes" transform="matrix(0.999667,-0.0257921,0.0257921,0.999667,-15.7306,56.5239)">
                <g id="left" transform="matrix(1,0,0,1,-10.0422,0.550442)">
                    <g id="Eye" transform="matrix(1.05,7.28584e-18,3.99092e-17,5.5537,-84.5,-3339.23)">
                        <path d="M1640,730C1675.81,729.665 1690,729.848 1690,732.608C1690,735.368 1668.99,738.547 1641.39,738.547C1613.79,738.547 1596.67,736.237 1596.67,733.477C1596.67,730.718 1612.44,730.258 1640,730Z" style="fill:white;stroke:black;stroke-width:1.33px;"/>
                    </g>
                    <g id="Iris" transform="matrix(1,0,0,1,-0.998648,-1.65134)">
                        <circle cx="1650" cy="740" r="5" style="fill:rgb(44,24,13);stroke:rgb(44,24,13);stroke-width:0.79px;stroke-linecap:butt;stroke-miterlimit:1.41421;"/>
                    </g>
                    <g id="Eyebrow" transform="matrix(0.998916,0.0465554,-0.0465554,0.998916,28.697,-57.4872)">
                        <path d="M1702,688C1700.39,688.513 1697.86,688.891 1696.31,689.275C1695.09,689.577 1598.52,694.253 1597.43,694.253" style="fill:none;stroke:rgb(29,16,9);stroke-width:20px;"/>
                    </g>
                </g>
                <g id="right" transform="matrix(0.987178,2.73479e-17,-6.82695e-17,0.970625,15.3484,17.7893)">
                    <g id="Eye1" serif:id="Eye" transform="matrix(1.02437,-5.88369e-17,4.78887e-18,2.43378,-36.4722,-1079.54)">
                        <path d="M1790,738.401C1814.84,738.401 1834,739.951 1834,745.911C1834,751.872 1817.75,757.831 1787.99,757.64C1763.16,757.48 1745,751.872 1745,745.911C1745,739.951 1765.16,738.401 1790,738.401Z" style="fill:white;stroke:black;stroke-width:2.94px;"/>
                    </g>
                    <g id="Iris1" serif:id="Iris" transform="matrix(1,0,0,1,148.822,0.35162)">
                        <circle cx="1650" cy="740" r="5" style="fill:rgb(44,24,13);stroke:rgb(44,24,13);stroke-width:0.8px;stroke-linecap:butt;stroke-miterlimit:1.41421;"/>
                    </g>
                    <g id="Eyebrow1" serif:id="Eyebrow" transform="matrix(1.22606,-0.0218443,0.00978466,0.549185,-408.082,368.991)">
                        <path d="M1754,693C1759.11,694.676 1759.11,694.725 1763,696C1763.99,696.324 1830,692.613 1830,692.485" style="fill:none;stroke:rgb(29,16,9);stroke-width:21.38px;"/>
                    </g>
                </g>
            </g>
        </g>
        <g id="sideburn" transform="matrix(0.387438,0,0,0.570192,-214,-348.999)">
            <path d="M1096.41,728.47C1120.16,720.429 1207.78,714.465 1204.51,759.225C1201.84,795.868 1161.56,855.185 1157.47,906C1152.63,966.181 1210.18,1077.78 1215.23,1087.89C1217.34,1092.13 1184.75,1116.29 1170,1096.39C1097.55,998.666 1034.67,1047.91 1034.67,1051.86C1034.66,1054.45 998.303,989.553 1012.09,904.182C1027.05,811.457 1075.85,735.43 1096.41,728.47Z" style="fill:rgb(44,24,13);fill-opacity:0.94902;"/>
        </g>
        <g id="beard">
            <g transform="matrix(-0.538871,0.00171569,-0.00123354,-0.387436,1234.29,619.37)">
                <path d="M1373.25,-23.347C1555.69,-66.366 1734.54,75.621 1787.86,267.218C1808.94,342.966 1845.63,861.864 1840.39,886.491C1838.93,893.403 1821.28,926.226 1811.39,907.998C1798.01,883.303 1798.41,741.032 1765.78,647.246C1733.93,555.682 1658.09,550.989 1617.91,545.031C1598.79,542.196 1533.53,682.873 1394.47,677.96C1318.17,675.265 1251.74,561.711 1232.2,556.754C1199.54,548.468 1131.88,623.186 1131.79,614.049C1130.7,494.378 1104.94,39.918 1373.25,-23.347Z" style="fill:rgb(44,24,13);stroke:rgb(29,16,9);stroke-width:14.54px;"/>
            </g>
            <g>
                <g transform="matrix(0.986643,0.162898,-0.162898,0.986643,-522.813,-677.684)">
                    <path d="M980,970C983.083,979.563 1001.56,1014.46 1007.85,1020C1021.65,1032.16 1034.52,1039.05 1045,1045" style="fill:rgb(34,19,11);fill-opacity:0.603922;stroke:rgb(29,16,9);stroke-opacity:0.2;stroke-width:6.67px;"/>
                </g>
                <g transform="matrix(1,0,0,1,-527,-491)">
                    <path d="M1040,1055C1060.48,1046.13 1081.99,1034.79 1100,990" style="fill:rgb(34,19,11);fill-opacity:0.603922;stroke:rgb(29,16,9);stroke-opacity:0.2;stroke-width:6.67px;"/>
                </g>
                <g transform="matrix(-0.533337,-0.449395,0.430766,-0.511229,593.39,1387.15)">
                    <path d="M1026.12,1037.82C1038.74,1031.78 1048.95,1027.49 1059.44,1017.05C1069.47,1007.07 1074.2,997.871 1077.03,990.62" style="fill:rgb(34,19,11);fill-opacity:0.603922;stroke:rgb(29,16,9);stroke-opacity:0.2;stroke-width:9.77px;"/>
                </g>
                <g transform="matrix(-0.0410767,0.696216,-0.667356,-0.039374,1114.78,-233.525)">
                    <path d="M1040,1055C1060.48,1046.13 1081.99,1034.79 1100,990" style="fill:rgb(34,19,11);fill-opacity:0.603922;stroke:rgb(29,16,9);stroke-opacity:0.2;stroke-width:9.77px;"/>
                </g>
                <g transform="matrix(0.346912,0.605026,0.579945,-0.332532,-412.749,150.594)">
                    <path d="M1040,1055C1060.48,1046.13 1081.99,1034.79 1100,990" style="fill:rgb(34,19,11);fill-opacity:0.603922;stroke:rgb(29,16,9);stroke-opacity:0.2;stroke-width:9.77px;"/>
                </g>
            </g>
        </g>
        <g id="glasses" transform="matrix(1.12473,0,7.55254e-18,1.08844,-66.7849,-81.4771)">
            <path d="M291.765,289.041L290.08,268.679C290.08,268.679 324.25,257.72 360.888,254.689C404.527,251.078 427.603,257.609 451.099,255.664C474.596,253.72 496.019,243.932 539.657,240.321C576.295,237.289 612.709,243.988 612.709,243.988L613.859,257.786C611.763,258.067 605.806,260.192 605.736,265.842C605.333,304.696 594.92,337.101 552.342,340.624C506.53,344.415 487.332,329.605 477.073,307.33L477.072,307.332C469.162,291.473 460.684,278.911 453.075,279.541C445.466,280.17 439.168,293.954 433.973,310.898L433.972,310.896C427.513,334.555 411.266,353.769 365.454,357.559C322.876,361.082 307.072,333.27 300.289,295.01C299.291,289.449 293.899,289.222 291.785,289.29L291.765,289.041C291.678,289.086 250.829,310.032 248.821,309.366C243.309,307.539 231.584,303.592 227.23,312.173C222.479,321.535 225.129,354.493 223.282,362.277C222.831,364.179 216.055,364.968 214.691,359.893C211.575,348.302 219.183,312.587 221.84,305.78C228.568,288.55 290.08,269.053 290.08,269.053L291.765,289.041ZM368.218,347.281C328.284,350.585 315.985,329.835 311.448,296.624C308.311,273.654 333.319,266.875 365.19,264.238C397.062,261.601 426.126,260.942 428.111,284.925C430.342,311.891 415.44,343.373 368.218,347.281ZM594.725,272.345C595.709,305.85 588.315,328.667 548.381,331.972C501.159,335.879 480.816,307.715 478.585,280.748C476.6,256.766 505.459,252.427 537.331,249.79C569.202,247.153 594.044,249.172 594.725,272.345Z" style="fill:rgb(48,39,34);stroke:black;stroke-width:5.56px;"/>
        </g>
        <g id="ear" transform="matrix(1,0,0,1,-702,-541)">
            <path id="fill" d="M897.995,787.167C905.2,787.452 925.058,801.028 927.002,810.213C928.116,815.477 931.144,846.692 934.969,873.018C940.198,909.006 956.281,950.149 950.614,951.268C944.475,952.481 939.195,954.642 928.998,953.775C911.948,952.325 866.231,926.686 863.061,859.679C860.889,813.754 863.343,785.797 897.995,787.167Z" style="fill:rgb(193,143,120);"/>
            <path id="lobe" d="M951.403,951.916C836.199,979.633 836.411,701.854 929.85,811.507" style="fill:none;stroke:black;stroke-width:6.67px;"/>
            <g transform="matrix(-1.21491,0.59008,1.10925,2.28382,572.878,-140.093)">
                <path d="M103.266,416C105.699,415.836 108.686,417.474 110.879,421.86C113.491,427.088 112.238,427.24 112.238,427.24C112.238,427.24 109.598,424.855 106.353,421.923C101.716,417.733 94.625,420.623 94.625,420.623C94.625,420.623 98.964,416.29 103.266,416Z" style="fill:rgb(64,64,64);fill-opacity:0.2;"/>
            </g>
            <g transform="matrix(1.27654,-0.441203,0.903012,2.61269,385.839,-232.928)">
                <path d="M103.266,416C110.036,416 115.533,421.982 115.533,429.35C115.533,434.759 113.515,439.595 109.763,441.784C108.404,442.577 98.723,438.404 98.723,438.404C98.723,438.404 118.738,448.957 107.541,428.74C100.032,415.182 92.934,422.156 92.934,422.156C92.934,422.156 98.93,416 103.266,416Z" style="fill:rgb(64,64,64);fill-opacity:0.101961;"/>
            </g>
            <g id="Inside" transform="matrix(1,0,0,1.10111,0,-95.4675)">
                <path d="M887.222,840C887.776,794.441 930.661,837.153 924.872,880C924.237,884.698 905.136,871.537 905.253,880C905.871,924.863 924.228,931.43 931.94,900" style="fill:none;stroke:black;stroke-width:6.35px;"/>
            </g>
        </g>
        <g id="_Image2_" serif:id="_Image2" transform="matrix(0.98517,0,0,0.984747,212.374,-28.2491)">
            <clipPath id="_clip1">
                <path d="M1279.08,224.738C1483.3,226.603 1635.62,489.518 1630.26,577.051C1627.19,627.326 1587.4,503.723 1498.11,404.233C1483.07,387.476 1436.19,476.488 1299.78,464.452C1246.44,459.747 1181.73,442.345 1104.65,407.473C1080.43,396.514 994.809,436.254 944.949,473.207C937.042,479.068 936.199,468.25 909.717,467.04C877.468,465.565 869.186,475.116 870.515,470.677C893.933,392.641 1010.86,222.29 1279.08,224.738Z"/>
            </clipPath>
            <g clip-path="url(#_clip1)">
                <clipPath id="_clip2">
                    <path d="M0,0C0,0 0,0 0,0Z"/>
                </clipPath>
                <g clip-path="url(#_clip2)">
                    <g transform="matrix(23.9537,-0,-0,23.9772,-587.52,-124.763)">
                    </g>
                </g>
            </g>
        </g>
        <g id="cap" transform="matrix(1.05828,0.0128269,-0.0132294,1.09271,-50.9026,-345.104)">
            <g id="cover" transform="matrix(1,0,0,0.944995,0,26.3472)">
                <path d="M547.415,302.492C500.217,266.365 418.19,263.822 321,301.732C219.38,341.37 219.28,481.957 219.28,481.957C256.325,462.284 307.818,433.888 365.352,415.437C451.093,387.939 556.147,385.864 625.821,390.627C625.821,390.627 592.66,337.125 547.415,302.492Z" style="fill:rgb(119,119,119);"/>
                <g id="holes" transform="matrix(1,0,0,1.05821,0,-27.8808)">
                    <clipPath id="_clip3">
                        <path d="M547.415,312.2C500.217,278.06 418.19,275.657 321,311.481C219.38,348.939 219.28,481.793 219.28,481.793C256.325,463.202 307.818,436.368 365.352,418.932C451.093,392.946 556.147,390.986 625.821,395.487C625.821,395.487 592.66,344.928 547.415,312.2Z"/>
                    </clipPath>
                    <g clip-path="url(#_clip3)">
                        <g id="r-1" transform="matrix(0.409897,0,0,0.345652,361.815,167.596)">
                            <path d="M325.5,373.802C331.847,373.802 337,379.448 337,386.401C337,393.355 331.847,399 325.5,399C319.153,399 314,393.355 314,386.401C314,379.448 319.153,373.802 325.5,373.802ZM325.5,380.102C328.674,380.102 331.25,382.924 331.25,386.401C331.25,389.878 328.674,392.701 325.5,392.701C322.326,392.701 319.75,389.878 319.75,386.401C319.75,382.924 322.326,380.102 325.5,380.102Z" style="fill:rgb(119,119,119);stroke:rgb(64,64,64);stroke-width:4.85px;"/>
                        </g>
                        <g id="l-2" transform="matrix(0.409897,0,0,0.345652,221.815,194.596)">
                            <path d="M325.5,373.802C331.847,373.802 337,379.448 337,386.401C337,393.355 331.847,399 325.5,399C319.153,399 314,393.355 314,386.401C314,379.448 319.153,373.802 325.5,373.802ZM325.5,380.102C328.674,380.102 331.25,382.924 331.25,386.401C331.25,389.878 328.674,392.701 325.5,392.701C322.326,392.701 319.75,389.878 319.75,386.401C319.75,382.924 322.326,380.102 325.5,380.102Z" style="fill:rgb(119,119,119);stroke:rgb(64,64,64);stroke-width:4.85px;"/>
                        </g>
                        <g id="l-1" transform="matrix(0.409897,0,0,0.345652,150.815,232.945)">
                            <path d="M325.5,373.802C331.847,373.802 337,379.448 337,386.401C337,393.355 331.847,399 325.5,399C319.153,399 314,393.355 314,386.401C314,379.448 319.153,373.802 325.5,373.802ZM325.5,380.102C328.674,380.102 331.25,382.924 331.25,386.401C331.25,389.878 328.674,392.701 325.5,392.701C322.326,392.701 319.75,389.878 319.75,386.401C319.75,382.924 322.326,380.102 325.5,380.102Z" style="fill:rgb(119,119,119);stroke:rgb(64,64,64);stroke-width:4.85px;"/>
                        </g>
                    </g>
                </g>
                <path d="M547.415,302.492C500.217,266.365 418.19,263.822 321,301.732C219.38,341.37 219.28,481.957 219.28,481.957C256.325,462.284 307.818,433.888 365.352,415.437C451.093,387.939 556.147,385.864 625.821,390.627C625.821,390.627 592.66,337.125 547.415,302.492Z" style="fill:none;stroke:black;stroke-width:6.6px;"/>
            </g>
            <g id="pin" transform="matrix(0.459085,-0.131943,1.00249,3.48809,-83.7235,-580.964)">
                <path d="M419.868,264C425.956,264 436.249,264.13 442.397,264.606C448.172,265.054 454.151,266.194 447.509,266.316C442.82,266.402 439.57,266.2 422.94,266.2C406.31,266.2 389.737,267.104 389.737,266C389.737,265.361 394.257,264.792 401.288,264.426C406.409,264.159 412.861,264 419.868,264Z" style="fill:rgb(119,119,119);stroke:black;stroke-width:2.45px;"/>
            </g>
            <g id="bill" transform="matrix(1,0,0,1.14168,42.5626,-137.964)">
                <path d="M448.222,465.673C358.818,473.529 269.265,489.274 220.056,522.584C223.558,516.949 339.545,529.889 341.124,523.012C342.741,515.967 391.192,505.103 468.755,496.97C531.779,490.362 606.84,496.929 635.197,497.422C641.523,497.532 596.928,466.341 570.221,463.631C513.36,457.861 489.908,462.009 448.222,465.673Z" style="fill:rgb(119,119,119);stroke:black;stroke-width:5.97px;"/>
            </g>
            <g>
                <g>
                    <g transform="matrix(0.558277,-0.119727,0.123553,0.540991,101.208,346.57)">
                        <path d="M506.724,124L486.032,157.671L477.897,157.671L500.132,124.437L506.724,124Z" style="fill:rgb(98,187,71);"/>
                    </g>
                    <g transform="matrix(0.558277,-0.119727,0.123553,0.540991,106.595,345.604)">
                        <path d="M506.724,124L486.032,157.671L477.897,157.671L500.132,124.437L506.724,124Z" style="fill:rgb(252,184,39);"/>
                    </g>
                    <g transform="matrix(0.558277,-0.119727,0.123553,0.540991,112.095,344.637)">
                        <path d="M506.724,124L486.032,157.671L477.897,157.671L500.132,124.437L506.724,124Z" style="fill:rgb(246,130,31);"/>
                    </g>
                    <g transform="matrix(0.558277,-0.119727,0.123553,0.540991,117.102,343.676)">
                        <path d="M506.724,124L486.032,157.671L477.897,157.671L500.132,124.437L506.724,124Z" style="fill:rgb(224,58,60);"/>
                    </g>
                    <g transform="matrix(0.558277,-0.119727,0.123553,0.540991,121.987,342.716)">
                        <path d="M506.724,124L486.032,157.671L477.897,157.671L500.132,124.437L506.724,124Z" style="fill:rgb(150,61,151);"/>
                    </g>
                    <g transform="matrix(0.558277,-0.119727,0.123553,0.540991,127.117,341.753)">
                        <path d="M506.724,124L486.032,157.671L477.897,157.671L500.132,124.437L506.724,124Z" style="fill:rgb(0,157,220);"/>
                    </g>
                </g>
                <g>
                    <g transform="matrix(0.558278,-0.119727,0.123552,0.540991,164.224,333.938)">
                        <path d="M501,130.671C501.105,141.519 485.876,139.671 485.876,139.671L486.032,157.671L477.897,157.671L478.132,124.437L484.724,124C484.724,124 500.918,122.201 501,130.671Z" style="fill:white;"/>
                    </g>
                    <g transform="matrix(0.558278,-0.119727,0.123552,0.540991,147.407,337.545)">
                        <path d="M507,129.671L497.228,129.671L497.876,157.671L492.032,157.671L491.42,129.531L480.897,129.671L481.132,124L506.724,124L507,129.671Z" style="fill:white;"/>
                    </g>
                    <g transform="matrix(0.558278,-0.119727,0.123552,0.540991,132.276,340.79)">
                        <path d="M507,157.671L501.228,157.671L500.876,133.671L486.032,157.671L477.897,157.671L500.132,124.437L506.724,124L507,157.671Z" style="fill:white;"/>
                    </g>
                </g>
            </g>
        </g>
    </g>
    <g transform="matrix(0.0916031,0,0,0.0985175,-23.0223,-86.5017)">
        <rect x="330" y="1090" width="524" height="246" style="fill:rgb(182,140,98);"/>
        <clipPath id="_clip4">
            <rect x="330" y="1090" width="524" height="246"/>
        </clipPath>
        <g clip-path="url(#_clip4)">
            <g transform="matrix(0.675245,0,0,1,107.169,-4.54747e-13)">
                <rect x="330" y="1090" width="524" height="246" style="fill:rgb(157,115,73);stroke:rgb(33,35,46);stroke-width:13.51px;"/>
            </g>
            <g transform="matrix(0.381776,0,0,0.597087,517.652,325.131)">
                <path d="M435.271,1281L435.271,1693" style="fill:none;stroke:rgb(33,35,46);stroke-width:24.44px;"/>
            </g>
            <g transform="matrix(0.115196,0,0,0.466019,701.681,582.039)">
                <rect x="330" y="1090" width="524" height="246" style="fill:rgb(221,200,181);stroke:rgb(33,35,46);stroke-width:35.51px;"/>
            </g>
            <g transform="matrix(0.642157,0,0,0.597087,231.75,517.99)">
                <g transform="matrix(2.14706,0,0,-0.847222,-316.147,2345.94)">
                    <path d="M300.945,1210.95L245.055,1210.95L273,1222.75L300.945,1210.95Z" style="fill:none;stroke:rgb(33,35,46);stroke-width:11.57px;"/>
                </g>
                <g transform="matrix(0.594522,0,0,0.145631,11.2218,1061.45)">
                    <path d="M435.271,1281L435.271,1693" style="fill:none;stroke:rgb(33,35,46);stroke-width:43.64px;"/>
                </g>
                <g transform="matrix(2.14706,0,0,0.847222,-317.147,158.556)">
                    <path d="M307,1208L239,1208L273.194,1284.72L307,1208Z" style="fill:none;stroke:rgb(33,35,46);stroke-width:11.57px;"/>
                </g>
            </g>
        </g>
        <rect x="330" y="1090" width="524" height="246" style="fill:none;stroke:rgb(33,35,46);stroke-width:11.68px;"/>
    </g>
    <g transform="matrix(1,0,0,1,11.7067,20.1324)">
        <g transform="matrix(0.0515267,0,0,0.0792683,10.908,-85.6524)">
            <path d="M739.832,1090L330,1090L446.444,1336L854,1336L739.832,1090Z" style="fill:rgb(182,140,98);stroke:rgb(33,35,46);stroke-width:16.62px;"/>
        </g>
        <g transform="matrix(0.0627087,0,0,0.0792683,-31.019,-85.6524)">
            <path d="M939.754,1090L422.892,1090L330,1336L854,1336L939.754,1090Z" style="fill:rgb(174,128,81);stroke:rgb(33,35,46);stroke-width:15.55px;"/>
        </g>
    </g>
</svg>
