<?xml version="1.0" encoding="UTF-8" standalone="no"?>
<!DOCTYPE svg PUBLIC "-//W3C//DTD SVG 1.1//EN" "http://www.w3.org/Graphics/SVG/1.1/DTD/svg11.dtd">
<svg width="100%" height="100%" viewBox="0 0 100 100" version="1.1" xmlns="http://www.w3.org/2000/svg" xmlns:xlink="http://www.w3.org/1999/xlink" xml:space="preserve" xmlns:serif="http://www.serif.com/" style="fill-rule:evenodd;clip-rule:evenodd;stroke-linecap:round;stroke-linejoin:round;stroke-miterlimit:1.5;">
    <g id="me" transform="matrix(0.03796,0,0,0.0379811,-15.5591,4.3062)">
        <g id="arm">
            <g id="skin" transform="matrix(1.50758,0,0,2.18966,-772.242,-1315.93)">
                <path d="M1550,1070C1566.84,1067.66 1587.94,1070.5 1591.64,1077.2C1594.1,1081.66 1587.43,1113.55 1577.2,1125.89C1573.74,1130.04 1558.07,1125.89 1558.07,1125.89C1558.07,1125.89 1574.58,1127.95 1573.15,1129.71C1568.64,1135.25 1558.07,1131.22 1558.07,1131.22L1571.91,1134.91C1571.91,1134.91 1584.43,1154.24 1587.48,1162.02C1600.45,1195.17 1661.39,1219.43 1640.65,1233.48C1632.38,1239.09 1613.59,1242.45 1577.2,1243.09C1532.69,1243.86 1492.62,1205.02 1492.62,1157C1492.62,1108.98 1500.61,1076.87 1550,1070Z" style="stroke:black;stroke-width:6.46px;"/>
            </g>
            <g id="shirt" transform="matrix(1.50758,0,0,2.18966,-772.242,-1315.93)">
                <path d="M1488.64,1136.84C1489.94,1121.7 1579.85,1142.86 1579.85,1142.86C1579.85,1142.86 1584.43,1154.24 1587.48,1162.02C1600.45,1195.17 1661.39,1219.43 1640.65,1233.48C1632.38,1239.09 1613.59,1242.45 1577.2,1243.09C1532.69,1243.86 1488.64,1204.16 1488.64,1156.14C1488.64,1148.04 1488.03,1143.99 1488.64,1136.84Z" style="stroke:black;stroke-width:6.46px;"/>
            </g>
        </g>
        <path id="body" d="M1707,1390C1707,1390 1579.79,1365.91 1480.37,1377.86C1384.39,1389.39 1299.4,1450.65 1299.4,1450.65C1299.4,1450.65 1244.67,1449.09 1208.46,1456.84C1186.38,1461.57 1144.71,1479.79 1144.71,1479.79C1144.71,1479.79 1124.8,1471.78 1116.85,1473.28C1108.9,1474.78 1097,1488.77 1097,1488.77C1097,1488.77 970.873,1481.02 967.79,1500C959.979,1548.08 967.79,1750.92 967.79,1750.92C967.79,1750.92 1063.57,1758.01 1108.79,1747.92C1120.03,1745.41 1163.09,1740.32 1173.15,1713.75C1191.07,1666.4 1177.21,1585.6 1180.78,1581.04C1183.08,1578.11 1180.78,1713.75 1180.78,1713.75C1180.78,1713.75 1223.6,1691.26 1263.01,1684.77C1297.43,1679.1 1329.25,1689.26 1327.68,1689.79C1322.47,1691.54 1295.16,1680.5 1263.01,1689.79C1201.38,1707.62 1117.58,1750.38 1106.79,1751.92C1078.5,1755.93 1180.78,1995 1180.78,1995C1180.78,1995 1505.72,1915.51 1637,1874.83C1749.67,1839.92 1968.46,1750.92 1968.46,1750.92C1968.46,1750.92 2315.69,1818.62 2478.99,1725.08C2492.57,1717.31 2607.75,1647.38 2559.28,1541.18C2533.89,1485.55 2400.73,1488.53 2376.69,1490.94C2222.61,1506.39 2026.39,1583.37 1996,1613C1981.34,1627.3 2025.96,1586.52 2043.67,1576.26C2061.66,1565.85 2084.22,1554.32 2068.91,1556.52C2053.6,1558.72 1961.86,1587.45 1951.82,1587.45C1941.78,1587.45 2055.68,1550.52 2055.68,1550.52C2055.68,1550.52 1967.28,1545.58 1934.88,1534.94C1932.26,1534.08 1923.48,1547.47 1907.79,1550.52C1883.82,1555.17 1850.38,1550.52 1850.38,1550.52C1850.38,1550.52 1887.48,1547.45 1907.79,1541.18C1921.47,1536.97 1921.99,1529.11 1919.42,1528.02C1894,1517.26 1851.69,1494.01 1828.22,1479.79C1788.9,1455.96 1707,1390 1707,1390Z" style="stroke:black;stroke-width:12.15px;"/>
        <g id="jeans">
            <path d="M1507.27,1911.59C1533.77,1904.47 1598.12,1748.99 1536.02,1629.49C1480.68,1523 1299.4,1450.65 1299.4,1450.65C1299.4,1450.65 1244.67,1449.09 1208.46,1456.84C1186.38,1461.57 1144.71,1479.79 1144.71,1479.79C1144.71,1479.79 1124.8,1471.78 1116.85,1473.28C1108.9,1474.78 1097,1488.77 1097,1488.77C1097,1488.77 970.39,1471.86 915.536,1488.77C868.448,1503.29 743.737,1532.35 738.556,1543.34C710.744,1602.32 684.144,1813.93 710.951,1818.62C750.406,1825.53 964.318,1765.92 964.318,1765.92C964.318,1765.92 1063.57,1758.01 1108.79,1747.92C1120.03,1745.41 1163.09,1740.32 1173.15,1713.75C1191.07,1666.4 1177.21,1585.6 1180.78,1581.04C1183.08,1578.11 1180.78,1713.75 1180.78,1713.75C1180.78,1713.75 1223.6,1691.26 1263.01,1684.77C1297.43,1679.1 1329.25,1689.26 1327.68,1689.79C1322.47,1691.54 1295.16,1680.5 1263.01,1689.79C1201.38,1707.62 1117.58,1750.38 1106.79,1751.92C1100.25,1752.84 1039.18,1761.51 1019.99,1775.74C996.2,1793.38 1005.52,2051.19 1019.99,2076.89C1033.41,2100.72 1180.78,2015 1180.78,2015C1180.78,2015 1361.03,1950.91 1507.27,1911.59Z" style="stroke:black;stroke-width:12.15px;"/>
            <g transform="matrix(1.13542,-0.113896,0.111429,1.11083,-350.607,4.7527)">
                <path d="M1541.95,1728C1541.95,1728 1527.46,1694.61 1459.55,1726.73C1401.38,1754.26 1438.05,1853.88 1438.05,1853.88L1503.88,1842.32L1541.95,1728Z" style="stroke:black;stroke-width:7.56px;stroke-linecap:butt;"/>
            </g>
            <g transform="matrix(1.58713,-0.933607,0.507021,0.861934,-1546.95,1478)">
                <path d="M1377,1524L1311,1524C1311,1524 1314.66,1545.77 1322.18,1548.51C1333.18,1552.51 1377,1548 1377,1548L1377,1524Z" style="stroke:black;stroke-width:5.76px;stroke-linecap:butt;"/>
            </g>
            <g transform="matrix(-6.12323e-17,-1,-1,6.12323e-17,2910.09,2835.95)">
                <path d="M1151.19,1539.72C1166.89,1569.36 1166.37,1620.36 1166.36,1625.09" style="stroke:black;stroke-width:12.15px;"/>
            </g>
            <path d="M1151.19,1542.72C1172.45,1564.66 1166.37,1614.36 1166.36,1619.09" style="stroke:black;stroke-width:12.15px;"/>
            <g id="shadow" transform="matrix(-3.75329,-4.37448,2.82074,-2.42019,1379.27,11217.7)">
                <path d="M1274.41,1627.43C1274.41,1627.43 1278.99,1634.23 1281.07,1637C1282,1638.23 1278.7,1634.08 1276.27,1633.72C1273.9,1633.37 1272.4,1636.85 1272.72,1635.47C1273.34,1632.8 1274.41,1627.43 1274.41,1627.43Z"/>
            </g>
        </g>
        <path id="shirt1" serif:id="shirt" d="M1707,1390C1707,1390 1579.79,1365.91 1480.37,1377.86C1384.39,1389.39 1286.4,1442.65 1286.4,1442.65C1286.4,1442.65 1461.68,1546.44 1500,1650.21C1529.32,1729.6 1511.49,1915.3 1511.49,1915.3C1511.49,1915.3 1606.24,1884.36 1637,1874.83C1749.67,1839.92 1968.46,1750.92 1968.46,1750.92C1968.46,1750.92 2212.8,1831.53 2382.46,1750.92C2416.41,1734.78 2383.14,1523.5 2318.35,1528.02C2162.87,1538.86 2026.96,1582.81 1996,1613C1981.34,1627.3 2025.96,1586.52 2043.67,1576.26C2061.66,1565.85 2084.22,1554.32 2068.91,1556.52C2053.6,1558.72 1961.86,1587.45 1951.82,1587.45C1941.78,1587.45 2055.68,1550.52 2055.68,1550.52C2055.68,1550.52 1967.28,1545.58 1934.88,1534.94C1932.26,1534.08 1923.48,1547.47 1907.79,1550.52C1883.82,1555.17 1850.38,1550.52 1850.38,1550.52C1850.38,1550.52 1887.48,1547.45 1907.79,1541.18C1921.47,1536.97 1921.99,1529.11 1919.42,1528.02C1894,1517.26 1851.69,1494.01 1828.22,1479.79C1788.9,1455.96 1707,1390 1707,1390Z" style="stroke:black;stroke-width:12.15px;"/>
        <g id="vans">
            <g id="right">
                <g transform="matrix(3.28025,0,0,2.67836,-1135.57,-2289.29)">
                    <path d="M570.115,1428.35C552.686,1435.21 550.846,1435.81 550.846,1435.81C550.846,1435.81 561.04,1341.09 530.619,1341.97C490.734,1343.13 491.828,1526.46 505.926,1535.75C520.462,1545.32 535.747,1545.21 559.529,1534.38C569.132,1530 579.656,1424.59 570.115,1428.35Z"/>
                    <clipPath id="_clip1">
                        <path d="M570.115,1428.35C552.686,1435.21 550.846,1435.81 550.846,1435.81C550.846,1435.81 561.04,1341.09 530.619,1341.97C490.734,1343.13 491.828,1526.46 505.926,1535.75C520.462,1545.32 535.747,1545.21 559.529,1534.38C569.132,1530 579.656,1424.59 570.115,1428.35Z"/>
                    </clipPath>
                    <g clip-path="url(#_clip1)">
                        <g transform="matrix(0.304854,0,0,0.373362,346.183,854.734)">
                            <path d="M666.932,1498.7C651.442,1502.24 630.449,1555.24 646.821,1570.57C673.944,1595.95 621.57,1832.38 621.566,1838.64" style="stroke:black;stroke-width:14.58px;"/>
                        </g>
                        <g transform="matrix(1.16256,0,0,0.628518,-177.893,431.543)">
                            <path d="M613.784,1747.13C622.495,1756.85 630.205,1756.07 630.205,1767.93C630.205,1779.79 612.095,1782.98 602.385,1782.98C592.674,1782.98 595.111,1739.16 595.111,1727.3C595.111,1715.44 603.604,1735.77 613.784,1747.13Z" style="fill:rgb(159,57,43);stroke:black;stroke-width:24.82px;"/>
                        </g>
                    </g>
                    <path d="M570.115,1428.35C552.686,1435.21 550.846,1435.81 550.846,1435.81C550.846,1435.81 561.04,1341.09 530.619,1341.97C490.734,1343.13 491.828,1526.46 505.926,1535.75C520.462,1545.32 535.747,1545.21 559.529,1534.38C569.132,1530 579.656,1424.59 570.115,1428.35Z" style="fill:none;stroke:black;stroke-width:4.06px;"/>
                </g>
                <g transform="matrix(1.25784,-0.445441,1.70445,4.81304,-2872.38,-7103.93)">
                    <path d="M376.28,1807.39C376.28,1807.39 374.922,1807.16 373.325,1806.89C372.121,1806.69 370.627,1806.64 369.273,1806.76C367.92,1806.89 366.858,1807.16 366.393,1807.52C360.325,1812.19 340.75,1826.59 324.978,1830.91C323.778,1831.23 324.37,1831.8 325.278,1832.19C326.186,1832.57 327.77,1832.82 329.506,1832.84C344.233,1833.01 394.089,1832.68 394.089,1832.68C394.089,1832.68 393.876,1832.04 393.653,1831.36C393.369,1830.5 390.663,1829.83 387.351,1829.8C374.331,1829.68 343.924,1829.41 343.924,1829.41C343.924,1829.41 348.211,1827.46 362.889,1817.85C370.143,1813.09 376.28,1807.39 376.28,1807.39Z"/>
                    <path d="M372.62,1806.79L372.861,1806.82L373.096,1806.85L373.325,1806.89L376.28,1807.39L376.002,1807.64L375.207,1808.35L373.955,1809.44L373.176,1810.11L372.305,1810.83L371.348,1811.62L370.314,1812.45L369.209,1813.31L368.042,1814.21L366.819,1815.12L365.547,1816.03L364.235,1816.94L362.889,1817.85L360.258,1819.56L357.86,1821.1L355.689,1822.48L353.734,1823.71L351.987,1824.79L350.438,1825.73L349.08,1826.54L347.902,1827.23L346.897,1827.81L346.055,1828.29L345.366,1828.66L344.823,1828.95L344.137,1829.31L343.924,1829.41L387.351,1829.8L387.965,1829.81L388.561,1829.84L389.138,1829.88L389.693,1829.93L390.223,1830L390.726,1830.08L391.198,1830.17L391.638,1830.27L392.042,1830.38L392.408,1830.5L392.733,1830.62L393.015,1830.76L393.25,1830.9L393.437,1831.05L393.572,1831.2L393.653,1831.36L394.089,1832.68L386.069,1832.73L377.537,1832.78L367.32,1832.83L356.412,1832.87L351.011,1832.88L345.81,1832.89L340.935,1832.89L336.509,1832.88L332.658,1832.86L330.987,1832.85L329.506,1832.84L329.183,1832.83L328.863,1832.82L328.549,1832.8L328.241,1832.78L327.939,1832.76L327.645,1832.73L327.359,1832.69L327.081,1832.65L326.814,1832.61L326.557,1832.56L326.311,1832.51L326.077,1832.45L325.856,1832.39L325.649,1832.33L325.456,1832.26L325.278,1832.19L325.112,1832.11L324.955,1832.03L324.81,1831.95L324.679,1831.87L324.564,1831.78L324.468,1831.7L324.391,1831.61L324.337,1831.52L324.308,1831.44L324.306,1831.35L324.333,1831.27L324.391,1831.19L324.482,1831.11L324.609,1831.04L324.773,1830.97L324.978,1830.91L325.72,1830.7L326.467,1830.47L327.219,1830.23L327.975,1829.98L328.736,1829.72L329.5,1829.44L330.267,1829.15L331.037,1828.85L331.809,1828.54L332.583,1828.22L333.359,1827.89L334.136,1827.54L334.914,1827.19L335.693,1826.83L336.471,1826.46L337.249,1826.09L338.803,1825.31L340.35,1824.51L341.888,1823.68L343.413,1822.84L344.922,1821.98L346.413,1821.11L347.881,1820.23L349.324,1819.34L350.739,1818.46L352.122,1817.58L353.471,1816.7L354.781,1815.83L356.05,1814.98L357.275,1814.14L358.453,1813.33L359.58,1812.54L361.669,1811.04L363.518,1809.69L365.101,1808.5L366.393,1807.52L366.487,1807.45L366.595,1807.39L366.716,1807.33L366.849,1807.27L366.995,1807.21L367.152,1807.16L367.5,1807.05L367.89,1806.96L368.1,1806.92L368.318,1806.88L368.545,1806.85L368.78,1806.82L369.023,1806.79L369.273,1806.76L369.529,1806.74L369.787,1806.73L370.047,1806.71L370.308,1806.7L370.57,1806.7L370.832,1806.69L371.355,1806.7L371.871,1806.73L372.124,1806.75L372.374,1806.77L372.62,1806.79ZM368.045,1810.11L366.184,1811.47L364.084,1812.97L362.948,1813.77L361.762,1814.59L360.529,1815.43L359.25,1816.29L357.93,1817.16L356.57,1818.05L355.175,1818.94L353.747,1819.83L352.289,1820.73L350.804,1821.61L349.295,1822.5L347.765,1823.37L346.216,1824.23L344.651,1825.07L343.073,1825.88L341.488,1826.67L340.686,1827.06L339.885,1827.44L339.083,1827.81L338.279,1828.18L337.473,1828.53L336.666,1828.88L335.857,1829.22L335.046,1829.54L334.233,1829.86L333.419,1830.17L332.602,1830.46L331.782,1830.75L330.958,1831.02L330.129,1831.28L329.343,1831.52L329.362,1831.53L329.388,1831.54L329.404,1831.54L329.421,1831.55L329.438,1831.55L329.457,1831.56L329.477,1831.56L329.498,1831.57L329.52,1831.57L329.543,1831.57L329.567,1831.58L329.59,1831.58L329.614,1831.58L329.639,1831.58L329.665,1831.58L329.69,1831.58L329.776,1831.59L331.141,1831.6L332.76,1831.61L336.56,1831.63L340.945,1831.63L345.792,1831.63L350.972,1831.62L356.354,1831.61L367.243,1831.57L377.444,1831.53L385.963,1831.48L388.862,1831.46L388.844,1831.43L388.808,1831.38L388.759,1831.35L388.697,1831.31L388.622,1831.27L388.536,1831.24L388.438,1831.21L388.329,1831.18L388.211,1831.15L388.085,1831.13L387.951,1831.11L387.811,1831.09L387.666,1831.08L387.515,1831.06L387.357,1831.06L387.077,1831.05L343.761,1830.66L343.319,1830.65L342.882,1830.63L342.454,1830.6L342.039,1830.56L341.639,1830.51L341.259,1830.45L340.902,1830.38L340.571,1830.31L340.268,1830.22L339.997,1830.13L339.759,1830.03L339.556,1829.93L339.391,1829.82L339.265,1829.71L339.178,1829.6L339.132,1829.48L339.127,1829.37L339.163,1829.25L339.239,1829.14L339.356,1829.03L339.511,1828.92L339.704,1828.81L339.887,1828.72L340.527,1828.4L341.042,1828.12L341.71,1827.75L342.534,1827.29L343.524,1826.72L344.688,1826.04L346.034,1825.23L347.571,1824.3L349.308,1823.22L351.253,1822L353.417,1820.63L355.806,1819.09L358.426,1817.38L359.752,1816.5L361.044,1815.6L362.298,1814.69L363.506,1813.8L364.661,1812.91L365.755,1812.06L366.779,1811.23L367.727,1810.46L368.591,1809.73L368.962,1809.42L368.045,1810.11Z"/>
                </g>
                <g transform="matrix(3.28025,0,0,2.67836,-1135.57,-2289.29)">
                    <path d="M570.34,1427.88C568.401,1428.64 564.035,1432 565.615,1432.59C573.183,1435.4 563.224,1506.57 556.355,1534.38C555.8,1536.62 557.603,1535.25 559.529,1534.38C569.132,1530 579.881,1424.12 570.34,1427.88Z" style="stroke:black;stroke-width:3.25px;"/>
                </g>
                <g transform="matrix(4.19478,0,0,2.77047,-1590.11,-2431.25)">
                    <path d="M510.087,1538.21C523.437,1545.2 519.528,1543.91 520.048,1490.32C520.323,1462.01 534.933,1388.66 527.571,1354.19C526.46,1349 519.858,1347.56 516.71,1350.84C487.736,1381 493.21,1527.38 505.926,1535.75C507.304,1536.65 508.689,1537.47 510.087,1538.21Z"/>
                    <clipPath id="_clip2">
                        <path d="M510.087,1538.21C523.437,1545.2 519.528,1543.91 520.048,1490.32C520.323,1462.01 534.933,1388.66 527.571,1354.19C526.46,1349 519.858,1347.56 516.71,1350.84C487.736,1381 493.21,1527.38 505.926,1535.75C507.304,1536.65 508.689,1537.47 510.087,1538.21Z"/>
                    </clipPath>
                    <g clip-path="url(#_clip2)">
                        <g transform="matrix(0.781984,0,0,0.966753,108.359,51.24)">
                            <path d="M510.087,1538.21C523.437,1545.2 519.528,1543.91 520.048,1490.32C520.323,1462.01 535.408,1385.53 527.571,1351.31C526.515,1346.69 523.196,1343.95 520.048,1347.23C491.074,1377.39 493.21,1527.38 505.926,1535.75C507.304,1536.65 508.689,1537.47 510.087,1538.21Z" style="stroke:black;stroke-width:4.06px;"/>
                        </g>
                    </g>
                    <path d="M510.087,1538.21C523.437,1545.2 519.528,1543.91 520.048,1490.32C520.323,1462.01 534.933,1388.66 527.571,1354.19C526.46,1349 519.858,1347.56 516.71,1350.84C487.736,1381 493.21,1527.38 505.926,1535.75C507.304,1536.65 508.689,1537.47 510.087,1538.21Z" style="fill:none;stroke:black;stroke-width:2.74px;"/>
                </g>
            </g>
            <g id="left">
                <g transform="matrix(3.28025,0,0,2.67836,-888.567,-2017.29)">
                    <path d="M581.832,1416.17C568.977,1415.93 562.736,1427.6 562.736,1427.6C562.736,1427.6 568.835,1353.41 543.118,1351.31C494.962,1347.36 493.108,1518.37 514.767,1545.45C519.188,1550.98 530.756,1549.42 548.018,1545.45C556.497,1543.51 570.961,1541.28 581.832,1528.61C595.798,1512.34 592.034,1416.37 581.832,1416.17Z"/>
                    <clipPath id="_clip3">
                        <path d="M581.832,1416.17C568.977,1415.93 562.736,1427.6 562.736,1427.6C562.736,1427.6 568.835,1353.41 543.118,1351.31C494.962,1347.36 493.108,1518.37 514.767,1545.45C519.188,1550.98 530.756,1549.42 548.018,1545.45C556.497,1543.51 570.961,1541.28 581.832,1528.61C595.798,1512.34 592.034,1416.37 581.832,1416.17Z"/>
                    </clipPath>
                    <g clip-path="url(#_clip3)">
                        <g transform="matrix(0.302957,-0.0415878,0.0339569,0.371039,305.221,878.484)">
                            <path d="M678.462,1485.85C662.972,1489.39 644.929,1558.63 661.302,1573.96C688.424,1599.34 621.57,1832.38 621.566,1838.64" style="fill:none;stroke:black;stroke-width:14.58px;"/>
                        </g>
                        <g transform="matrix(1.40392,0,0,0.710401,-304.124,286.839)">
                            <path d="M613.784,1747.13C622.495,1756.85 630.205,1756.07 630.205,1767.93C630.205,1779.79 612.095,1782.98 602.385,1782.98C592.674,1782.98 595.111,1739.16 595.111,1727.3C595.111,1715.44 603.604,1735.77 613.784,1747.13Z" style="stroke:black;stroke-width:20.77px;"/>
                        </g>
                    </g>
                    <path d="M581.832,1416.17C568.977,1415.93 562.736,1427.6 562.736,1427.6C562.736,1427.6 568.835,1353.41 543.118,1351.31C494.962,1347.36 493.108,1518.37 514.767,1545.45C519.188,1550.98 530.756,1549.42 548.018,1545.45C556.497,1543.51 570.961,1541.28 581.832,1528.61C595.798,1512.34 592.034,1416.37 581.832,1416.17Z" style="fill:none;stroke:black;stroke-width:4.06px;"/>
                </g>
                <g transform="matrix(1.2012,-0.581124,2.22363,4.5963,-3514.02,-6418.4)">
                    <path d="M376.28,1807.39C376.28,1807.39 374.87,1807.2 373.143,1806.99C371.842,1806.83 370.692,1806.82 369.339,1806.94C367.986,1807.07 367.096,1807.45 366.631,1807.81C360.563,1812.48 338.058,1826.03 324.948,1830.92C323.356,1831.52 323.001,1832.27 324.796,1833.11C326.911,1834.1 331.355,1834.13 333.092,1834.16C339.112,1834.23 349.876,1832.68 361.509,1832.67C378.329,1832.66 392.448,1832.85 392.448,1832.85C392.448,1832.85 391.836,1831.39 387.398,1830.51C382.373,1829.52 368.117,1828.62 364.808,1828.57C350.295,1828.35 342.42,1829.12 342.42,1829.12C342.42,1829.12 347.897,1827.33 363.368,1817.8C372.54,1812.15 376.28,1807.39 376.28,1807.39Z"/>
                    <path d="M375.359,1807.27L376.28,1807.39L376.101,1807.6L375.552,1808.22L375.132,1808.66L374.613,1809.19L373.991,1809.8L373.263,1810.48L372.429,1811.22L371.484,1812.02L370.427,1812.88L369.255,1813.79L368.625,1814.26L367.965,1814.74L367.276,1815.23L366.556,1815.73L365.806,1816.24L365.024,1816.75L364.212,1817.27L363.368,1817.8L360.583,1819.5L358.026,1821.02L355.69,1822.38L353.568,1823.59L351.654,1824.65L349.941,1825.57L348.422,1826.36L347.092,1827.03L345.943,1827.59L344.969,1828.05L344.162,1828.41L343.517,1828.69L343.027,1828.89L342.685,1829.02L342.42,1829.12L342.786,1829.08L343.242,1829.05L343.877,1829L344.689,1828.94L345.677,1828.88L346.838,1828.82L348.172,1828.76L349.675,1828.7L351.347,1828.64L353.185,1828.6L355.187,1828.56L356.25,1828.55L357.353,1828.54L358.496,1828.53L359.679,1828.53L360.903,1828.53L362.165,1828.54L363.467,1828.55L364.808,1828.57L365.552,1828.59L366.523,1828.63L367.691,1828.68L369.027,1828.75L370.502,1828.84L372.085,1828.94L373.747,1829.06L375.46,1829.19L377.192,1829.33L378.915,1829.48L380.598,1829.63L382.214,1829.8L382.986,1829.88L383.731,1829.97L384.443,1830.06L385.12,1830.15L385.758,1830.24L386.352,1830.33L386.9,1830.42L387.398,1830.51L387.803,1830.6L388.186,1830.68L388.548,1830.77L388.889,1830.86L389.21,1830.96L389.512,1831.05L389.795,1831.15L390.059,1831.25L390.306,1831.34L390.536,1831.44L390.946,1831.63L391.295,1831.83L391.587,1832.01L391.827,1832.18L392.02,1832.34L392.17,1832.48L392.283,1832.61L392.413,1832.79L392.448,1832.85L389.979,1832.82L387.094,1832.79L383.286,1832.76L378.69,1832.73L373.439,1832.7L367.668,1832.68L364.628,1832.67L361.509,1832.67L360.421,1832.68L359.339,1832.69L358.264,1832.71L357.195,1832.74L356.135,1832.78L355.083,1832.82L354.04,1832.87L353.008,1832.92L351.986,1832.98L350.976,1833.04L348.993,1833.16L347.064,1833.3L345.196,1833.44L341.662,1833.72L340.007,1833.84L338.436,1833.95L337.683,1834L336.953,1834.05L336.246,1834.08L335.564,1834.11L334.907,1834.13L334.275,1834.15L333.67,1834.16L333.092,1834.16L332.323,1834.14L331.863,1834.14L331.36,1834.12L330.824,1834.1L330.261,1834.08L329.68,1834.04L329.086,1833.99L328.488,1833.94L327.892,1833.87L327.307,1833.78L327.021,1833.74L326.74,1833.68L326.466,1833.63L326.198,1833.57L325.939,1833.5L325.689,1833.43L325.448,1833.36L325.219,1833.28L325.001,1833.2L324.796,1833.11L324.485,1832.95L324.222,1832.8L324.007,1832.64L323.839,1832.5L323.715,1832.35L323.636,1832.2L323.598,1832.06L323.602,1831.92L323.645,1831.79L323.727,1831.65L323.846,1831.52L324,1831.4L324.189,1831.27L324.411,1831.15L324.664,1831.04L324.948,1830.92L325.569,1830.69L326.203,1830.44L327.51,1829.91L328.861,1829.33L330.254,1828.72L331.682,1828.06L333.143,1827.37L334.629,1826.65L336.138,1825.9L337.664,1825.13L339.202,1824.33L340.749,1823.52L342.298,1822.69L343.845,1821.85L345.386,1821L346.916,1820.14L348.43,1819.28L349.923,1818.42L351.391,1817.57L352.829,1816.72L354.232,1815.88L355.596,1815.06L356.915,1814.25L358.185,1813.46L359.402,1812.7L360.56,1811.96L361.654,1811.25L362.681,1810.58L363.635,1809.94L364.512,1809.34L365.307,1808.78L366.015,1808.27L366.631,1807.81L366.825,1807.67L367.06,1807.54L367.335,1807.41L367.652,1807.29L367.826,1807.23L368.01,1807.18L368.205,1807.12L368.41,1807.08L368.626,1807.04L368.853,1807L369.09,1806.97L369.339,1806.94L369.837,1806.9L370.321,1806.88L370.794,1806.86L371.26,1806.86L371.724,1806.87L372.19,1806.9L372.662,1806.94L373.143,1806.99L374.362,1807.14L375.359,1807.27ZM369.003,1809.78L368.113,1810.39L367.148,1811.04L366.11,1811.72L365.005,1812.43L363.838,1813.18L362.612,1813.95L361.333,1814.74L360.005,1815.55L358.633,1816.38L357.222,1817.23L355.775,1818.08L354.298,1818.94L352.795,1819.8L351.271,1820.67L349.73,1821.53L348.178,1822.39L346.618,1823.24L345.055,1824.07L343.494,1824.9L341.939,1825.7L340.395,1826.48L338.865,1827.24L337.355,1827.98L335.867,1828.68L334.405,1829.35L332.973,1829.98L331.574,1830.58L330.217,1831.13L329.54,1831.39L328.932,1831.62L328.763,1831.69L328.665,1831.73L328.585,1831.78L328.522,1831.82L328.474,1831.86L328.438,1831.9L328.413,1831.94L328.4,1831.98L328.399,1832.02L328.412,1832.07L328.441,1832.12L328.491,1832.18L328.566,1832.25L328.67,1832.32L328.809,1832.41L328.99,1832.5L329.057,1832.53L329.127,1832.55L329.197,1832.58L329.27,1832.6L329.344,1832.62L329.422,1832.64L329.505,1832.66L329.593,1832.68L329.689,1832.69L329.75,1832.7L330.028,1832.74L330.291,1832.78L330.584,1832.8L330.903,1832.83L331.241,1832.85L331.59,1832.87L331.944,1832.88L332.296,1832.89L332.629,1832.89L333.243,1832.9L333.593,1832.9L333.946,1832.9L334.365,1832.89L334.843,1832.87L335.376,1832.85L335.958,1832.82L336.586,1832.78L337.241,1832.74L338.717,1832.64L340.306,1832.52L343.839,1832.24L345.761,1832.1L347.776,1831.95L349.859,1831.82L350.955,1831.75L352.056,1831.69L353.176,1831.63L354.315,1831.58L355.471,1831.54L356.644,1831.5L357.835,1831.47L359.041,1831.44L360.262,1831.43L361.465,1831.42L364.64,1831.42L367.708,1831.42L373.515,1831.44L378.802,1831.47L383.43,1831.5L384.514,1831.51L384.212,1831.46L383.843,1831.4L383.403,1831.33L382.899,1831.26L382.34,1831.18L381.732,1831.11L381.081,1831.03L380.41,1830.96L378.918,1830.81L377.356,1830.66L375.738,1830.52L374.099,1830.39L372.473,1830.27L370.893,1830.16L369.393,1830.06L368.007,1829.98L366.773,1829.91L365.735,1829.86L364.959,1829.83L364.449,1829.82L363.258,1829.8L362.025,1829.79L360.833,1829.78L359.679,1829.78L358.564,1829.78L357.489,1829.79L356.455,1829.8L355.476,1829.81L353.59,1829.85L351.883,1829.89L350.34,1829.94L348.962,1830L347.752,1830.05L346.71,1830.11L345.839,1830.16L345.14,1830.21L344.615,1830.25L344.276,1830.28L343.972,1830.3L343.54,1830.34L343.099,1830.36L342.652,1830.37L342.202,1830.37L341.755,1830.36L341.313,1830.34L340.881,1830.3L340.463,1830.26L340.062,1830.21L339.681,1830.15L339.324,1830.07L338.995,1830L338.695,1829.91L338.429,1829.81L338.197,1829.71L338.002,1829.61L337.846,1829.5L337.73,1829.38L337.655,1829.27L337.622,1829.15L337.631,1829.03L337.682,1828.92L337.774,1828.8L337.908,1828.69L338.08,1828.58L338.291,1828.48L338.538,1828.38L338.754,1828.3L339.015,1828.2L339.444,1828.03L340.036,1827.77L340.797,1827.43L341.731,1826.99L342.846,1826.45L344.145,1825.79L345.636,1825.01L347.325,1824.11L349.217,1823.06L351.32,1821.87L353.638,1820.51L356.179,1819L358.948,1817.31L359.775,1816.8L360.571,1816.28L361.337,1815.78L362.072,1815.28L362.778,1814.79L363.454,1814.31L364.1,1813.84L364.715,1813.38L365.868,1812.49L366.905,1811.65L367.832,1810.86L368.65,1810.13L369.08,1809.73L369.003,1809.78Z"/>
                </g>
                <g transform="matrix(3.70783,0,0,2.67836,-1139.24,-2017.29)">
                    <path d="M582.212,1415.9C580.511,1415.87 577.469,1416.13 578.425,1417.54C586.644,1429.63 593.748,1491.99 577.077,1532.41C576.078,1534.84 580.021,1530.72 581.832,1528.61C595.798,1512.34 592.414,1416.1 582.212,1415.9Z" style="stroke:black;stroke-width:3.25px;"/>
                </g>
                <g transform="matrix(3.79336,0,0,2.78989,-1145.91,-2190.16)">
                    <path d="M528.543,1549.64C542.567,1546.46 530.471,1544.51 534.583,1527.29C548.748,1467.95 540.7,1379.76 534.583,1371.09C529.921,1364.49 521.797,1364.03 517.624,1371.09C497.094,1405.86 496.303,1522.37 514.767,1545.45C516.943,1548.17 522.36,1551.04 528.543,1549.64Z"/>
                    <clipPath id="_clip4">
                        <path d="M528.543,1549.64C542.567,1546.46 530.471,1544.51 534.583,1527.29C548.748,1467.95 540.7,1379.76 534.583,1371.09C529.921,1364.49 521.797,1364.03 517.624,1371.09C497.094,1405.86 496.303,1522.37 514.767,1545.45C516.943,1548.17 522.36,1551.04 528.543,1549.64Z"/>
                    </clipPath>
                    <g clip-path="url(#_clip4)">
                        <g transform="matrix(0.864736,0,0,0.960024,67.8405,61.9626)">
                            <path d="M528.543,1549.64C542.567,1546.46 530.471,1544.51 534.583,1527.29C548.748,1467.95 540.7,1379.76 534.583,1371.09C529.921,1364.49 521.797,1364.03 517.624,1371.09C497.094,1405.86 496.303,1522.37 514.767,1545.45C516.943,1548.17 522.36,1551.04 528.543,1549.64Z" style="stroke:black;stroke-width:4.06px;"/>
                        </g>
                    </g>
                    <path d="M528.543,1549.64C542.567,1546.46 530.471,1544.51 534.583,1527.29C548.748,1467.95 540.7,1379.76 534.583,1371.09C529.921,1364.49 521.797,1364.03 517.624,1371.09C497.094,1405.86 496.303,1522.37 514.767,1545.45C516.943,1548.17 522.36,1551.04 528.543,1549.64Z" style="fill:none;stroke:black;stroke-width:2.92px;"/>
                </g>
            </g>
        </g>
        <g id="head">
            <g id="head1" serif:id="head" transform="matrix(1.13922,1.15255,-1.63578,1.61687,1324.56,-2625.6)">
                <path d="M1995.4,531C2244.78,530.298 2355.99,660.638 2339.8,817C2323.5,974.429 2117.35,1115.54 1927.55,1108.32C1803.99,1103.62 1680.45,1049.42 1687.26,962.954C1689.94,928.969 1651,868.447 1651,817C1651,659.152 1767.14,531.643 1995.4,531Z" style="stroke:black;stroke-width:6.11px;"/>
            </g>
            <g id="beard" transform="matrix(-1.66827,-1.64432,-1.07611,1.09178,4835.09,2041.9)">
                <g transform="matrix(-0.521035,0.0016589,-0.00123354,-0.387436,1903.46,1160.48)">
                    <path d="M1429.27,40.417C1534.35,21.119 1690.23,143.257 1776.48,286.702C1819.94,358.964 1899.06,598.713 1903.9,631.073C1912.66,689.572 1846.64,704.25 1855.44,798.462C1875.19,1009.81 1859.83,1092.27 1853.97,1092.09C1820.82,1091.06 1825.03,1129.61 1815.15,1111.39C1801.77,1086.69 1798.41,741.032 1765.78,647.246C1733.93,555.682 1583.62,512.681 1543.44,506.723C1524.32,503.888 1434.43,629.889 1322.02,620.821C1243.99,614.526 1197.22,567.585 1162.72,552.87C1130.5,539.127 1136.15,658.787 1134.79,650.095C1115.01,523.981 1163.81,89.167 1429.27,40.417Z" style="stroke:black;stroke-width:11.11px;"/>
                </g>
                <g>
                    <g transform="matrix(-0.0137296,-0.504113,-0.682427,0.0433957,2002.78,1835.37)">
                        <ellipse cx="1794" cy="1149.5" rx="11" ry="13.5"/>
                    </g>
                    <g transform="matrix(0.986643,0.162898,-0.162898,0.986643,179.187,-136.684)">
                        <path d="M980,970C983.083,979.563 1001.56,1014.46 1007.85,1020C1021.65,1032.16 1034.52,1039.05 1045,1045" style="stroke:black;stroke-opacity:0.501961;stroke-width:4.62px;"/>
                    </g>
                    <g transform="matrix(0.88137,0.721879,-0.309175,0.88137,543.932,-559.598)">
                        <path d="M1040,1055C1060.48,1046.13 1081.99,1034.79 1100,990" style="stroke:black;stroke-opacity:0.501961;stroke-width:4.31px;"/>
                    </g>
                    <g transform="matrix(-0.0410767,0.696216,-0.667356,-0.039374,1839.84,320.225)">
                        <path d="M1040,1055C1060.48,1046.13 1081.99,1034.79 1100,990" style="stroke:black;stroke-opacity:0.501961;stroke-width:6.22px;"/>
                    </g>
                    <g transform="matrix(0.346912,0.605026,0.579945,-0.332532,289.251,691.594)">
                        <path d="M1040,1055C1060.48,1046.13 1081.99,1034.79 1100,990" style="stroke:black;stroke-opacity:0.501961;stroke-width:5.46px;"/>
                    </g>
                </g>
            </g>
            <g id="sideburn" transform="matrix(-0.813731,-0.607279,-0.636091,0.852338,4215.76,1002.29)">
                <g transform="matrix(1,0,0,1.29032,-27.2494,-260.361)">
                    <path d="M1056.46,715.745C1104.15,704.987 1199.11,747.185 1195.84,791.945C1193.17,828.589 1161.56,855.185 1157.47,906C1152.63,966.181 1261.88,1121.5 1265.4,1131.96C1269.44,1143.96 1224.94,1157.86 1212.48,1137.12C1200.74,1117.59 1181.46,1082.99 1093.07,1071.18C1008.47,1059.88 1015.55,1087.04 1015.14,1084.96C1008.6,1051.65 990.233,988.207 980,906C969.398,820.823 1021.01,723.742 1056.46,715.745Z" style="stroke:black;stroke-width:8.84px;"/>
                </g>
                <path d="M1070,720C1084.6,735.53 1080.59,781.653 1080,790C1077.43,826.194 1050.97,874.496 1030,950C1019.18,988.959 1039.66,1040 1040,1040" style="stroke:black;stroke-opacity:0.501961;stroke-width:8.21px;"/>
            </g>
            <g id="leg" transform="matrix(-0.509596,-0.740168,-0.856976,0.590017,2660.28,1255.11)">
                <path d="M365.451,71.801C365.451,71.801 14.095,73.478 -48.203,103.915C-72.813,115.939 -168.913,182.88 -171,208C-171.914,219 -135.359,221.537 -130,218C-108.07,203.525 -69.778,135.874 -30.221,120C6.031,105.453 60.889,120.488 86.724,127.5C96.146,130.057 349.065,113.026 349.065,113.026L365.451,71.801Z" style="stroke:black;stroke-width:8.78px;"/>
            </g>
            <g id="ear">
                <g transform="matrix(1.42827,2.62655,-3.09473,1.68286,2998.59,-7420.22)">
                    <path d="M2518,1263C2535.66,1263 2550,1287.87 2550,1318.5C2550,1349.13 2535.44,1376.34 2518,1374C2500.87,1371.7 2502.89,1350.42 2499.49,1333.68C2496.88,1320.84 2487.36,1312.3 2486.02,1307.18C2479.9,1283.87 2500.34,1263 2518,1263Z"/>
                </g>
                <g transform="matrix(2.45498,2.85019,-4.23341,3.64641,2369.98,-10797.4)">
                    <path d="M2479,1407.86C2483.79,1406.98 2488,1412.14 2488,1417.43C2488,1422.71 2490.33,1418.28 2481.09,1413.42C2474.9,1410.17 2464.53,1410.51 2479,1407.86Z"/>
                </g>
                <path d="M2473.2,1393.16C2555.27,1398.24 2447.09,1518.35 2412.66,1477.12C2346.06,1397.37 2729.25,1257.64 2625.74,1424.12" style="stroke:black;stroke-width:12.15px;"/>
                <path d="M2512.1,1301.1C2659.7,1219.73 2794.85,1357.8 2578.67,1480.12C2406.18,1577.72 2328.65,1542.29 2341.09,1459.1" style="stroke:black;stroke-width:12.15px;"/>
            </g>
            <g id="face">
                <g id="mouth" transform="matrix(1.3757,0.377861,-0.176302,-1.2654,534.153,1999.86)">
                    <path d="M1026.12,1037.82C1038.74,1031.78 1048.95,1027.49 1059.44,1017.05C1069.47,1007.07 1074.2,997.871 1077.03,990.62" style="stroke:black;stroke-width:10.11px;"/>
                </g>
                <g id="nose">
                    <g transform="matrix(1.38228,-0.997704,0.997704,1.38228,-1707.37,1456.13)">
                        <circle cx="1842.5" cy="1007.5" r="3.5"/>
                    </g>
                    <path d="M1925.95,920.18C1834.66,962.438 1854.51,964.544 1840.34,966.456C1822.33,968.885 1815.82,992.898 1816.47,1004.73" style="stroke:black;stroke-width:12.15px;"/>
                </g>
                <g id="eyes">
                    <g id="right1" serif:id="right">
                        <g transform="matrix(1.69795,1.36342,-1.05412,1.31275,-455.438,-2763.1)">
                            <path d="M1812.99,765.113C1814.67,736.583 1896.61,712.962 1896.61,745.751C1896.61,778.54 1886.17,819.176 1850.66,825.787C1816.8,832.09 1811.07,797.808 1812.99,765.113Z"/>
                            <path d="M1817.33,744.782L1818.02,744.114L1818.72,743.456L1819.44,742.809L1820.17,742.172L1820.92,741.546L1821.68,740.929L1822.46,740.322L1823.25,739.725L1824.05,739.137L1824.86,738.558L1825.69,737.989L1826.53,737.429L1827.38,736.878L1828.24,736.336L1829.11,735.803L1830,735.28L1830.89,734.765L1831.79,734.26L1832.7,733.764L1833.63,733.278L1834.56,732.8L1835.49,732.332L1836.45,731.868L1838.35,730.986L1840.29,730.137L1842.26,729.328L1844.24,728.559L1846.24,727.832L1848.25,727.148L1850.27,726.507L1852.3,725.91L1854.34,725.359L1856.37,724.854L1858.4,724.397L1860.42,723.99L1862.43,723.635L1863.44,723.473L1864.44,723.327L1865.44,723.194L1866.43,723.074L1867.41,722.968L1868.4,722.876L1869.37,722.797L1870.35,722.733L1871.31,722.683L1872.27,722.648L1873.22,722.628L1874.17,722.623L1875.1,722.633L1876.03,722.658L1876.96,722.7L1877.87,722.757L1878.78,722.832L1879.67,722.923L1880.56,723.031L1881.44,723.157L1882.31,723.301L1883.17,723.463L1884.02,723.645L1884.86,723.846L1885.69,724.067L1886.51,724.31L1887.31,724.573L1888.11,724.86L1888.9,725.17L1889.67,725.504L1890.43,725.863L1891.18,726.25L1891.92,726.664L1892.65,727.107L1893.36,727.581L1894.06,728.088L1894.74,728.628L1895.4,729.204L1896.05,729.817L1896.68,730.468L1897.29,731.159L1897.87,731.891L1898.43,732.664L1898.96,733.478L1899.45,734.333L1899.92,735.228L1900.34,736.16L1900.73,737.129L1901.07,738.129L1901.37,739.16L1901.62,740.215L1901.83,741.292L1901.99,742.386L1902.11,743.496L1902.17,744.617L1902.19,745.678L1902.18,747.383L1902.16,749.03L1902.12,750.688L1902.06,752.355L1901.98,754.031L1901.89,755.715L1901.78,757.405L1901.64,759.102L1901.49,760.804L1901.32,762.511L1901.13,764.221L1900.92,765.934L1900.69,767.648L1900.43,769.363L1900.16,771.079L1899.86,772.793L1899.54,774.505L1899.2,776.215L1898.83,777.921L1898.44,779.622L1898.03,781.318L1897.59,783.007L1897.13,784.689L1896.64,786.362L1896.12,788.026L1895.58,789.679L1895.01,791.32L1894.41,792.95L1893.78,794.565L1893.13,796.166L1892.44,797.751L1891.73,799.318L1890.99,800.868L1890.21,802.399L1889.41,803.908L1888.57,805.396L1887.7,806.861L1886.8,808.302L1885.87,809.717L1884.9,811.105L1883.9,812.464L1882.88,813.777L1882.34,814.447L1881.81,815.093L1881.26,815.73L1880.7,816.359L1880.14,816.98L1879.57,817.592L1878.99,818.195L1878.4,818.789L1877.8,819.374L1877.2,819.95L1876.58,820.517L1875.96,821.073L1875.33,821.62L1874.69,822.158L1874.04,822.684L1873.38,823.201L1872.71,823.707L1872.04,824.203L1871.35,824.688L1870.66,825.162L1869.96,825.625L1869.25,826.077L1868.53,826.517L1867.8,826.946L1867.07,827.363L1866.32,827.769L1865.57,828.163L1864.81,828.545L1864.04,828.915L1863.26,829.272L1862.47,829.618L1861.68,829.95L1860.87,830.271L1860.06,830.578L1859.24,830.873L1858.41,831.155L1857.57,831.424L1856.72,831.679L1855.86,831.922L1855,832.151L1854.12,832.367L1853.24,832.569L1852.35,832.758L1851.45,832.933L1850.6,833.086L1849.75,833.223L1848.91,833.344L1848.07,833.45L1847.25,833.54L1846.44,833.615L1845.63,833.675L1844.83,833.719L1844.04,833.748L1843.26,833.761L1842.49,833.759L1841.72,833.742L1840.96,833.71L1840.21,833.662L1839.47,833.599L1838.73,833.521L1838.01,833.428L1837.29,833.319L1836.58,833.196L1835.88,833.057L1835.18,832.903L1834.5,832.735L1833.82,832.551L1833.14,832.352L1832.48,832.138L1831.83,831.909L1831.18,831.666L1830.54,831.408L1829.91,831.135L1829.29,830.847L1828.68,830.545L1828.07,830.229L1827.48,829.898L1826.89,829.553L1826.31,829.194L1825.74,828.821L1825.18,828.435L1824.62,828.035L1824.08,827.623L1823.55,827.197L1823.02,826.757L1822.51,826.306L1822,825.842L1821.51,825.367L1821.02,824.879L1820.54,824.38L1820.08,823.869L1819.62,823.348L1819.17,822.816L1818.73,822.274L1818.31,821.721L1817.89,821.159L1817.48,820.587L1817.08,820.006L1816.69,819.416L1816.31,818.818L1815.94,818.211L1815.58,817.596L1815.23,816.973L1814.87,816.317L1814.22,815.062L1813.6,813.752L1813.02,812.417L1812.46,811.058L1811.94,809.676L1811.45,808.274L1811,806.852L1810.57,805.412L1810.17,803.955L1809.81,802.482L1809.47,800.994L1809.15,799.491L1808.86,797.976L1808.6,796.449L1808.36,794.909L1808.14,793.36L1807.94,791.801L1807.77,790.233L1807.62,788.656L1807.49,787.073L1807.38,785.483L1807.28,783.886L1807.21,782.285L1807.15,780.68L1807.11,779.071L1807.09,777.46L1807.08,775.847L1807.09,774.232L1807.11,772.618L1807.15,771.004L1807.2,769.391L1807.26,767.781L1807.34,766.173L1807.43,764.486L1807.51,763.5L1807.64,762.443L1807.82,761.404L1808.03,760.384L1808.28,759.386L1808.57,758.409L1808.89,757.455L1809.25,756.523L1809.63,755.613L1810.04,754.725L1810.48,753.859L1810.93,753.012L1811.42,752.185L1811.92,751.376L1812.45,750.584L1813,749.809L1813.56,749.05L1814.14,748.306L1814.75,747.575L1815.37,746.858L1816.01,746.154L1816.66,745.462L1817.33,744.782ZM1819.58,751.695L1819.04,752.296L1818.52,752.901L1818.01,753.512L1817.53,754.126L1817.07,754.745L1816.63,755.368L1816.21,755.995L1815.82,756.626L1815.45,757.261L1815.1,757.899L1814.78,758.541L1814.48,759.186L1814.21,759.834L1813.96,760.485L1813.74,761.139L1813.55,761.795L1813.38,762.455L1813.24,763.116L1813.13,763.78L1813.05,764.446L1812.99,765.113L1812.91,766.647L1812.84,768.182L1812.78,769.717L1812.73,771.252L1812.69,772.785L1812.67,774.316L1812.66,775.843L1812.67,777.366L1812.69,778.883L1812.73,780.394L1812.78,781.898L1812.85,783.394L1812.94,784.88L1813.04,786.356L1813.17,787.82L1813.31,789.273L1813.47,790.713L1813.64,792.138L1813.84,793.548L1814.06,794.943L1814.3,796.32L1814.56,797.679L1814.84,799.02L1815.14,800.341L1815.46,801.64L1815.81,802.918L1816.18,804.174L1816.58,805.405L1817,806.612L1817.44,807.793L1817.91,808.947L1818.41,810.074L1818.93,811.173L1819.48,812.241L1819.76,812.764L1820.05,813.28L1820.35,813.787L1820.66,814.287L1820.97,814.778L1821.29,815.261L1821.62,815.736L1821.95,816.202L1822.29,816.66L1822.64,817.109L1822.99,817.549L1823.36,817.98L1823.73,818.402L1824.1,818.815L1824.49,819.219L1824.88,819.613L1825.28,819.998L1825.69,820.372L1826.11,820.738L1826.53,821.093L1826.97,821.438L1827.41,821.773L1827.86,822.098L1828.31,822.412L1828.78,822.716L1829.25,823.009L1829.73,823.292L1830.22,823.563L1830.72,823.824L1831.23,824.074L1831.74,824.312L1832.26,824.539L1832.8,824.754L1833.34,824.958L1833.89,825.15L1834.45,825.33L1835.01,825.498L1835.59,825.654L1836.18,825.798L1836.77,825.93L1837.38,826.049L1837.99,826.156L1838.61,826.249L1839.24,826.331L1839.88,826.399L1840.53,826.454L1841.19,826.496L1841.86,826.524L1842.54,826.54L1843.23,826.541L1843.93,826.529L1844.64,826.503L1845.35,826.464L1846.08,826.41L1846.82,826.342L1847.57,826.26L1848.33,826.164L1849.09,826.053L1849.87,825.927L1850.66,825.787L1851.49,825.626L1852.31,825.452L1853.12,825.267L1853.92,825.069L1854.71,824.859L1855.49,824.637L1856.26,824.404L1857.03,824.159L1857.78,823.902L1858.53,823.635L1859.27,823.355L1860,823.065L1860.72,822.764L1861.43,822.452L1862.14,822.129L1862.83,821.795L1863.52,821.451L1864.19,821.096L1864.87,820.731L1865.53,820.356L1866.18,819.971L1866.82,819.576L1867.46,819.171L1868.09,818.756L1868.71,818.332L1869.32,817.898L1869.92,817.455L1870.52,817.003L1871.11,816.541L1871.69,816.071L1872.26,815.591L1872.82,815.103L1873.38,814.607L1873.93,814.102L1874.47,813.588L1875,813.066L1875.52,812.536L1876.04,811.998L1876.55,811.453L1877.05,810.899L1877.55,810.338L1878.04,809.769L1878.52,809.192L1878.99,808.609L1879.91,807.42L1880.81,806.204L1881.67,804.96L1882.51,803.691L1883.32,802.397L1884.1,801.079L1884.85,799.738L1885.58,798.375L1886.28,796.99L1886.95,795.586L1887.6,794.162L1888.22,792.721L1888.82,791.262L1889.39,789.786L1889.94,788.296L1890.46,786.791L1890.96,785.272L1891.43,783.741L1891.89,782.199L1892.32,780.646L1892.72,779.083L1893.11,777.512L1893.47,775.933L1893.81,774.348L1894.13,772.756L1894.42,771.16L1894.7,769.56L1894.96,767.957L1895.2,766.352L1895.41,764.747L1895.61,763.141L1895.79,761.536L1895.95,759.933L1896.09,758.333L1896.22,756.737L1896.32,755.146L1896.41,753.56L1896.49,751.981L1896.54,750.41L1896.58,748.847L1896.6,747.294L1896.61,745.751L1896.6,744.993L1896.55,744.255L1896.48,743.538L1896.38,742.841L1896.25,742.164L1896.09,741.507L1895.9,740.869L1895.69,740.252L1895.45,739.653L1895.19,739.075L1894.9,738.515L1894.58,737.974L1894.25,737.452L1893.88,736.949L1893.5,736.465L1893.09,735.999L1892.65,735.551L1892.2,735.122L1891.73,734.71L1891.23,734.316L1890.71,733.94L1890.17,733.582L1889.62,733.241L1889.04,732.917L1888.44,732.611L1887.83,732.321L1887.19,732.048L1886.55,731.792L1885.88,731.552L1885.2,731.329L1884.5,731.122L1883.78,730.931L1883.05,730.757L1882.31,730.597L1881.55,730.454L1880.78,730.326L1879.99,730.213L1879.19,730.116L1878.38,730.033L1877.56,729.966L1876.72,729.913L1875.88,729.875L1875.02,729.852L1874.15,729.842L1873.28,729.847L1872.39,729.866L1871.5,729.899L1870.6,729.945L1869.69,730.006L1868.77,730.079L1867.85,730.166L1866.92,730.266L1865.98,730.379L1865.04,730.505L1864.09,730.643L1863.14,730.794L1861.23,731.134L1859.3,731.521L1857.37,731.956L1855.43,732.437L1853.49,732.963L1851.55,733.533L1849.62,734.145L1847.7,734.799L1845.79,735.493L1843.9,736.226L1842.03,736.996L1840.19,737.804L1838.37,738.646L1837.48,739.081L1836.59,739.524L1835.71,739.975L1834.84,740.434L1833.98,740.901L1833.13,741.376L1832.29,741.859L1831.47,742.349L1830.65,742.847L1829.85,743.352L1829.06,743.864L1828.28,744.383L1827.52,744.908L1826.77,745.441L1826.03,745.98L1825.31,746.525L1824.61,747.077L1823.92,747.634L1823.25,748.198L1822.59,748.767L1821.95,749.342L1821.33,749.922L1820.73,750.508L1820.15,751.099L1819.58,751.695Z"/>
                        </g>
                        <g transform="matrix(1.33333,0,0,1.27597,-1075.48,-436.888)">
                            <ellipse cx="2231" cy="939" rx="21" ry="22"/>
                        </g>
                    </g>
                    <g id="left1" serif:id="left">
                        <g transform="matrix(1.93029,2.19518,-1.45831,1.28234,-252.229,-4076.56)">
                            <path d="M1812.99,765.113C1814.67,736.583 1896.61,712.962 1896.61,745.751C1896.61,778.54 1886.17,819.176 1850.66,825.787C1816.8,832.09 1811.07,797.808 1812.99,765.113Z"/>
                            <path d="M1812.41,750.441L1812.94,749.642L1813.49,748.863L1814.05,748.101L1814.64,747.356L1815.24,746.627L1815.86,745.912L1816.5,745.21L1817.15,744.522L1817.81,743.846L1818.5,743.182L1819.19,742.529L1819.91,741.887L1820.63,741.255L1821.37,740.633L1822.13,740.022L1822.9,739.42L1823.68,738.827L1824.48,738.244L1825.28,737.67L1826.1,737.106L1826.94,736.55L1827.78,736.004L1828.63,735.466L1829.5,734.938L1830.38,734.418L1831.26,733.908L1832.16,733.407L1833.06,732.915L1833.98,732.432L1834.9,731.958L1835.83,731.494L1836.77,731.039L1837.72,730.594L1838.67,730.158L1839.63,729.731L1840.6,729.315L1841.57,728.908L1842.54,728.512L1843.53,728.125L1844.51,727.749L1845.5,727.383L1846.5,727.027L1847.49,726.682L1848.49,726.347L1849.5,726.024L1850.5,725.711L1851.51,725.409L1852.52,725.119L1853.52,724.84L1854.53,724.572L1855.54,724.316L1856.55,724.072L1857.56,723.839L1858.56,723.619L1859.57,723.411L1860.57,723.215L1861.57,723.031L1862.57,722.861L1863.56,722.703L1864.55,722.558L1865.54,722.426L1866.52,722.307L1867.5,722.202L1868.47,722.111L1869.43,722.034L1870.39,721.97L1871.35,721.921L1872.29,721.886L1873.23,721.866L1874.16,721.861L1875.09,721.871L1876.01,721.896L1876.91,721.937L1877.81,721.994L1878.7,722.067L1879.59,722.156L1880.46,722.262L1881.32,722.386L1882.17,722.527L1883.01,722.686L1883.84,722.864L1884.66,723.06L1885.47,723.276L1886.27,723.513L1887.06,723.77L1887.84,724.049L1888.6,724.35L1889.35,724.675L1890.1,725.025L1890.82,725.4L1891.54,725.802L1892.25,726.234L1892.94,726.695L1893.62,727.188L1894.28,727.716L1894.93,728.279L1895.57,728.882L1896.19,729.525L1896.8,730.211L1897.38,730.943L1897.94,731.722L1898.48,732.55L1898.96,733.385L1899.23,733.887L1899.47,734.357L1899.69,734.84L1899.91,735.336L1900.12,735.843L1900.32,736.361L1900.51,736.891L1900.69,737.432L1900.86,737.983L1901.01,738.543L1901.16,739.113L1901.29,739.689L1901.41,740.273L1901.51,740.865L1901.61,741.462L1901.69,742.065L1901.76,742.672L1901.82,743.282L1901.86,743.895L1901.89,744.511L1901.91,745.127L1901.91,745.718L1901.9,747.41L1901.88,749.084L1901.84,750.768L1901.78,752.463L1901.7,754.166L1901.6,755.878L1901.49,757.597L1901.35,759.322L1901.2,761.052L1901.03,762.787L1900.83,764.526L1900.62,766.268L1900.38,768.011L1900.12,769.755L1899.85,771.5L1899.54,773.243L1899.22,774.985L1898.87,776.723L1898.5,778.458L1898.1,780.188L1897.68,781.912L1897.23,783.629L1896.76,785.338L1896.26,787.038L1895.74,788.728L1895.19,790.406L1894.61,792.073L1894,793.725L1893.38,795.343L1893.04,796.176L1892.7,796.985L1892.36,797.789L1892.01,798.589L1891.65,799.385L1891.29,800.176L1890.92,800.962L1890.54,801.743L1890.15,802.518L1889.76,803.289L1889.35,804.053L1888.94,804.812L1888.53,805.565L1888.1,806.312L1887.67,807.053L1887.23,807.787L1886.78,808.515L1886.32,809.236L1885.85,809.95L1885.38,810.658L1884.9,811.357L1884.41,812.05L1883.92,812.735L1883.41,813.412L1882.9,814.082L1882.38,814.743L1881.85,815.396L1881.31,816.041L1880.77,816.677L1880.21,817.305L1879.65,817.924L1879.08,818.534L1878.51,819.134L1877.92,819.726L1877.33,820.308L1876.72,820.88L1876.11,821.442L1875.49,821.995L1874.87,822.538L1874.23,823.07L1873.59,823.592L1872.94,824.104L1872.28,824.605L1871.61,825.095L1870.93,825.575L1870.25,826.043L1869.56,826.501L1868.85,826.947L1868.14,827.382L1867.43,827.806L1866.7,828.218L1865.97,828.618L1865.22,829.007L1864.47,829.383L1863.71,829.748L1862.94,830.1L1862.17,830.441L1861.38,830.769L1860.59,831.084L1859.79,831.387L1858.98,831.678L1858.16,831.955L1857.33,832.22L1856.5,832.472L1855.65,832.711L1854.8,832.937L1853.94,833.15L1853.07,833.349L1852.19,833.535L1851.31,833.708L1850.46,833.859L1849.63,833.993L1848.8,834.113L1847.98,834.217L1847.17,834.306L1846.37,834.38L1845.58,834.438L1844.8,834.481L1844.02,834.51L1843.25,834.523L1842.5,834.521L1841.75,834.504L1841,834.472L1840.27,834.426L1839.54,834.364L1838.83,834.288L1838.12,834.197L1837.42,834.091L1836.72,833.971L1836.04,833.835L1835.36,833.685L1834.69,833.521L1834.03,833.342L1833.38,833.148L1832.73,832.94L1832.09,832.717L1831.46,832.48L1830.84,832.228L1830.23,831.962L1829.62,831.682L1829.02,831.387L1828.43,831.079L1827.85,830.756L1827.28,830.419L1826.71,830.067L1826.15,829.703L1825.6,829.324L1825.06,828.932L1824.53,828.526L1824,828.107L1823.49,827.675L1822.98,827.23L1822.48,826.772L1821.99,826.301L1821.51,825.818L1821.03,825.322L1820.57,824.815L1820.11,824.296L1819.66,823.765L1819.23,823.223L1818.8,822.67L1818.38,822.106L1817.97,821.531L1817.57,820.947L1817.17,820.352L1816.79,819.748L1816.41,819.134L1816.05,818.512L1815.69,817.88L1815.34,817.24L1815.01,816.592L1814.67,815.936L1814.35,815.272L1814.04,814.601L1813.74,813.923L1813.44,813.238L1813.15,812.546L1812.88,811.848L1812.6,811.143L1812.34,810.433L1812.09,809.717L1811.84,808.995L1811.6,808.269L1811.37,807.538L1811.15,806.801L1810.94,806.06L1810.73,805.315L1810.52,804.538L1810.15,803.053L1809.8,801.526L1809.48,799.985L1809.18,798.431L1808.91,796.865L1808.66,795.289L1808.44,793.702L1808.24,792.107L1808.07,790.503L1807.91,788.893L1807.78,787.276L1807.66,785.654L1807.57,784.027L1807.49,782.395L1807.43,780.761L1807.39,779.125L1807.37,777.486L1807.36,775.847L1807.37,774.208L1807.39,772.569L1807.43,770.932L1807.48,769.297L1807.55,767.665L1807.62,766.037L1807.71,764.371L1807.75,763.82L1807.81,763.23L1807.87,762.647L1807.95,762.068L1808.04,761.498L1808.15,760.877L1808.37,759.828L1808.64,758.754L1808.95,757.712L1809.29,756.702L1809.66,755.723L1810.06,754.776L1810.49,753.858L1810.93,752.967L1811.4,752.101L1811.89,751.26L1812.41,750.441ZM1815.45,757.261L1815.1,757.899L1814.78,758.541L1814.48,759.186L1814.21,759.834L1813.96,760.485L1813.74,761.139L1813.55,761.795L1813.38,762.455L1813.24,763.116L1813.18,763.448L1813.13,763.78L1813.09,764.112L1813.05,764.446L1813.02,764.779L1812.99,765.113L1812.91,766.647L1812.84,768.182L1812.78,769.717L1812.73,771.252L1812.69,772.785L1812.67,774.316L1812.66,775.843L1812.67,777.366L1812.69,778.883L1812.73,780.394L1812.78,781.898L1812.85,783.394L1812.94,784.88L1813.04,786.356L1813.17,787.82L1813.31,789.273L1813.47,790.713L1813.64,792.138L1813.84,793.548L1814.06,794.943L1814.3,796.32L1814.56,797.679L1814.84,799.02L1815.14,800.341L1815.46,801.64L1815.63,802.282L1815.81,802.918L1816,803.549L1816.18,804.174L1816.38,804.792L1816.58,805.405L1816.79,806.012L1817,806.612L1817.22,807.206L1817.44,807.793L1817.67,808.374L1817.91,808.947L1818.16,809.514L1818.41,810.074L1818.67,810.627L1818.93,811.173L1819.2,811.711L1819.48,812.241L1819.76,812.764L1820.05,813.28L1820.35,813.787L1820.66,814.287L1820.97,814.778L1821.29,815.261L1821.62,815.736L1821.95,816.202L1822.29,816.66L1822.64,817.109L1822.99,817.549L1823.36,817.98L1823.73,818.402L1824.1,818.815L1824.49,819.219L1824.88,819.613L1825.28,819.998L1825.69,820.372L1826.11,820.738L1826.53,821.093L1826.97,821.438L1827.41,821.773L1827.86,822.098L1828.31,822.412L1828.78,822.716L1829.25,823.009L1829.73,823.292L1830.22,823.563L1830.72,823.824L1831.23,824.074L1831.74,824.312L1832.26,824.539L1832.8,824.754L1833.34,824.958L1833.89,825.15L1834.45,825.33L1835.01,825.498L1835.59,825.654L1836.18,825.798L1836.77,825.93L1837.38,826.049L1837.99,826.156L1838.61,826.249L1839.24,826.331L1839.88,826.399L1840.53,826.454L1841.19,826.496L1841.86,826.524L1842.54,826.54L1843.23,826.541L1843.93,826.529L1844.64,826.503L1845.35,826.464L1846.08,826.41L1846.82,826.342L1847.57,826.26L1848.33,826.164L1849.09,826.053L1849.87,825.927L1850.66,825.787L1851.49,825.626L1852.31,825.452L1853.12,825.267L1853.92,825.069L1854.71,824.859L1855.49,824.637L1856.26,824.404L1857.03,824.159L1857.78,823.902L1858.53,823.635L1859.27,823.355L1860,823.065L1860.72,822.764L1861.43,822.452L1862.14,822.129L1862.83,821.795L1863.52,821.451L1864.19,821.096L1864.87,820.731L1865.53,820.356L1866.18,819.971L1866.82,819.576L1867.46,819.171L1868.09,818.756L1868.71,818.332L1869.32,817.898L1869.92,817.455L1870.52,817.003L1871.11,816.541L1871.69,816.071L1872.26,815.591L1872.82,815.103L1873.38,814.607L1873.93,814.102L1874.47,813.588L1875,813.066L1875.52,812.536L1876.04,811.998L1876.55,811.453L1877.05,810.899L1877.55,810.338L1878.04,809.769L1878.52,809.192L1878.99,808.609L1879.45,808.018L1879.91,807.42L1880.36,806.815L1880.81,806.204L1881.24,805.585L1881.67,804.96L1882.09,804.329L1882.51,803.691L1882.92,803.047L1883.32,802.397L1883.71,801.741L1884.1,801.079L1884.48,800.411L1884.85,799.738L1885.22,799.059L1885.58,798.375L1885.93,797.685L1886.28,796.99L1886.62,796.291L1886.95,795.586L1887.28,794.877L1887.6,794.162L1887.91,793.444L1888.22,792.721L1888.52,791.993L1888.82,791.262L1889.39,789.786L1889.94,788.296L1890.46,786.791L1890.96,785.272L1891.43,783.741L1891.89,782.199L1892.32,780.646L1892.72,779.083L1893.11,777.512L1893.47,775.933L1893.81,774.348L1894.13,772.756L1894.42,771.16L1894.7,769.56L1894.96,767.957L1895.2,766.352L1895.41,764.747L1895.61,763.141L1895.79,761.536L1895.95,759.933L1896.09,758.333L1896.22,756.737L1896.32,755.146L1896.41,753.56L1896.49,751.981L1896.54,750.41L1896.58,748.847L1896.6,747.294L1896.61,745.751L1896.61,745.369L1896.6,744.993L1896.58,744.622L1896.55,744.255L1896.52,743.894L1896.48,743.538L1896.43,743.187L1896.38,742.841L1896.31,742.5L1896.25,742.164L1896.17,741.833L1896.09,741.507L1896,741.186L1895.9,740.869L1895.8,740.558L1895.69,740.252L1895.57,739.95L1895.45,739.653L1895.32,739.362L1895.19,739.075L1895.05,738.792L1894.9,738.515L1894.58,737.974L1894.25,737.452L1893.88,736.949L1893.5,736.465L1893.09,735.999L1892.65,735.551L1892.2,735.122L1891.73,734.71L1891.23,734.316L1890.71,733.94L1890.17,733.582L1889.62,733.241L1889.04,732.917L1888.44,732.611L1887.83,732.321L1887.19,732.048L1886.55,731.792L1885.88,731.552L1885.2,731.329L1884.5,731.122L1883.78,730.931L1883.05,730.757L1882.31,730.597L1881.55,730.454L1880.78,730.326L1879.99,730.213L1879.19,730.116L1878.38,730.033L1877.56,729.966L1876.72,729.913L1875.88,729.875L1875.02,729.852L1874.15,729.842L1873.28,729.847L1872.39,729.866L1871.5,729.899L1870.6,729.945L1869.69,730.006L1868.77,730.079L1867.85,730.166L1866.92,730.266L1865.98,730.379L1865.04,730.505L1864.09,730.643L1863.14,730.794L1862.19,730.958L1861.23,731.134L1860.27,731.322L1859.3,731.521L1858.34,731.733L1857.37,731.956L1856.4,732.191L1855.43,732.437L1854.46,732.695L1853.49,732.963L1852.52,733.243L1851.55,733.533L1850.59,733.834L1849.62,734.145L1848.66,734.467L1847.7,734.799L1846.75,735.141L1845.79,735.493L1844.85,735.854L1843.9,736.226L1842.96,736.606L1842.03,736.996L1841.11,737.395L1840.19,737.804L1839.28,738.221L1838.37,738.646L1837.48,739.081L1836.59,739.524L1835.71,739.975L1834.84,740.434L1833.98,740.901L1833.13,741.376L1832.29,741.859L1831.47,742.349L1830.65,742.847L1829.85,743.352L1829.06,743.864L1828.28,744.383L1827.52,744.908L1826.77,745.441L1826.03,745.98L1825.31,746.525L1824.61,747.077L1823.92,747.634L1823.25,748.198L1822.59,748.767L1821.95,749.342L1821.33,749.922L1820.73,750.508L1820.15,751.099L1819.58,751.695L1819.04,752.296L1818.52,752.901L1818.01,753.512L1817.53,754.126L1817.07,754.745L1816.63,755.368L1816.21,755.995L1815.82,756.626L1815.45,757.261Z"/>
                        </g>
                        <g transform="matrix(1.33333,0,0,1.27597,-759.667,-249.888)">
                            <ellipse cx="2231" cy="939" rx="21" ry="22"/>
                        </g>
                    </g>
                </g>
                <g id="brows">
                    <g id="right2" serif:id="right" transform="matrix(1,0,0,1,4.0588,1)">
                        <path d="M1867.13,639.235C1927.95,639.423 1987.44,645.368 2038,678" style="stroke:black;stroke-width:38.89px;"/>
                    </g>
                    <g id="left2" serif:id="left" transform="matrix(1,0,0,1,349.059,127)">
                        <path d="M1867.13,639.235C1935.14,647.613 2040.94,760.548 2075,818" style="stroke:black;stroke-width:38.89px;"/>
                    </g>
                </g>
            </g>
            <g id="frame" transform="matrix(-0.452839,-0.316944,-0.246641,0.352392,2999.61,541.869)">
                <path d="M734.287,2212.9C528.189,2212.9 464.922,2069.53 455.755,1876.26C449.414,1742.59 591.515,1711.55 756,1712.87C886.878,1713.92 1030.34,1745.87 1007.74,1882.72C980.631,2046.92 895.829,2190.83 734.287,2212.9M1162.35,1704.75C1041.08,1704.75 963.217,1655.87 738,1655.87C548.91,1655.87 369.107,1702.66 369.107,1702.66L369.107,1822.07C379.971,1822.69 407.513,1826.56 410.27,1859.04C428.814,2082.43 498.023,2250 717.769,2250C954.205,2250 1004.04,2095.17 1047.18,1962.1L1063.64,1905.38C1097.45,1810.35 1110.65,1823.3 1146.54,1822.98" style="fill-rule:nonzero;stroke:black;stroke-width:19.98px;stroke-linecap:butt;stroke-miterlimit:1.41421;"/>
            </g>
            <g id="frame1" serif:id="frame" transform="matrix(0.342188,0.18828,-0.191167,0.347436,1988.02,-30.3313)">
                <path d="M734.287,2212.9C528.189,2212.9 464.922,2069.53 455.755,1876.26C449.414,1742.59 591.515,1711.55 756,1712.87C886.878,1713.92 1030.34,1745.87 1007.74,1882.72C980.631,2046.92 895.829,2190.83 734.287,2212.9M1209.72,1703.35C1115.87,1698.77 963.217,1655.87 738,1655.87C548.91,1655.87 369.107,1702.66 369.107,1702.66L369.107,1822.07C379.971,1822.69 407.513,1826.56 410.27,1859.04C428.814,2082.43 498.023,2250 717.769,2250C954.205,2250 1004.04,2095.17 1047.18,1962.1L1063.64,1905.38C1097.45,1810.35 1159.94,1825.96 1201.69,1838.78" style="fill-rule:nonzero;stroke:black;stroke-width:24.7px;stroke-linecap:butt;stroke-miterlimit:1.41421;"/>
            </g>
            <g id="hair" transform="matrix(-0.647974,-0.569679,-0.456468,0.519205,3930.04,1173.33)">
                <g transform="matrix(1.34483,0,0,1,-365.517,240)">
                    <path d="M1573.08,70C1733.08,75.765 1879.55,373.586 1842.67,566.086C1833.28,615.101 1780.02,477.973 1692.05,380C1677.24,363.499 1462.56,526.534 1328.12,537.621C1170.32,550.636 1040.59,468.121 1037.69,400C1032.61,280.516 1306.68,60.401 1573.08,70Z" style="stroke:black;stroke-width:11.17px;"/>
                </g>
                <g>
                    <path d="M1137.36,663.127C1369.16,693.121 1765.83,620.312 1920,534.822" style="stroke:black;stroke-opacity:0.501961;stroke-width:10.92px;"/>
                    <path d="M1139.38,609.511C1204.66,611.709 1725.76,587.777 1880,460" style="stroke:black;stroke-opacity:0.501961;stroke-width:10.92px;"/>
                    <path d="M1149.58,581.614C1203.39,530.609 1703.95,351.578 1820,380" style="stroke:black;stroke-opacity:0.501961;stroke-width:10.92px;"/>
                </g>
            </g>
        </g>
    </g>
</svg>
